<svg xmlns="http://www.w3.org/2000/svg" viewBox="0 0 55.73 45.22"><title>checkpc</title><g id="レイヤー_2" data-name="レイヤー 2"><g id="pc_free" data-name="pc free"><path d="M53.05,0H2.69A2.7,2.7,0,0,0,0,2.69V31.86a2.7,2.7,0,0,0,2.69,2.69H53.05a2.69,2.69,0,0,0,2.68-2.69V2.69A2.69,2.69,0,0,0,53.05,0ZM52,30.76H3.79v-27H52Z"/><path d="M38.93,41.31h-4.5l-1-4.59H22.31l-1,4.59H16.81a1,1,0,0,0-.95.95v2a1,1,0,0,0,.95.95H38.93a1,1,0,0,0,1-.95v-2A1,1,0,0,0,38.93,41.31Z"/><polygon points="24.76 27.68 15.38 18.31 18.84 14.85 24.76 20.77 38.32 7.21 41.77 10.67 24.76 27.68"/></g></g></svg>