<svg xmlns="http://www.w3.org/2000/svg" viewBox="0 0 79.91 55.34"><defs><style>.cls-1{fill-rule:evenodd;}</style></defs><title>device</title><g id="レイヤー_2" data-name="レイヤー 2"><g id="pc_free" data-name="pc free"><path class="cls-1" d="M37.63,49.35l-.82-6.49h4.71V34.39H3.58V4H58V17.3H61.6V3.39A3.27,3.27,0,0,0,58.47,0H3.13A3.27,3.27,0,0,0,0,3.39V39.47a3.27,3.27,0,0,0,3.13,3.39H24.87L24,49.35c-1.06.24-3.28,4.47-3.28,4.47-.38,1,.82,1.5,1.83,1.5H39.07c1,0,2.38-.26,1.84-1.5C40.91,53.82,38.69,49.6,37.63,49.35Z"/><path class="cls-1" d="M63.29,53.73V49.52H47.36V25.89H66.72v1.17h2.74V21.93a1.22,1.22,0,0,0-1.17-1.27H45.79a1.22,1.22,0,0,0-1.17,1.27V54.07a1.22,1.22,0,0,0,1.17,1.27H63.54A5.37,5.37,0,0,1,63.29,53.73ZM57,54.1a1.75,1.75,0,1,1,1.61-1.75A1.68,1.68,0,0,1,57,54.1Z"/><path class="cls-1" d="M78.42,30.42H67.89A1.56,1.56,0,0,0,66.39,32v21.7a1.56,1.56,0,0,0,1.5,1.61H78.42a1.55,1.55,0,0,0,1.49-1.61V32A1.55,1.55,0,0,0,78.42,30.42Zm-7.08,1.31H75a.36.36,0,0,1,0,.72H71.34a.36.36,0,0,1,0-.72Zm1.81,22.68a.94.94,0,1,1,.88-.94A.91.91,0,0,1,73.15,54.41Zm5-2.62h-10V33.46h10Z"/></g></g></svg>