<?xml version="1.0" encoding="utf-8"?>
<!-- Generator: Adobe Illustrator 22.1.0, SVG Export Plug-In . SVG Version: 6.00 Build 0)  -->
<svg version="1.1" id="pcmobile" xmlns="http://www.w3.org/2000/svg" xmlns:xlink="http://www.w3.org/1999/xlink" x="0px" y="0px"
	 viewBox="0 0 408 296" style="enable-background:new 0 0 408 296;" xml:space="preserve">
<style type="text/css">
	.st0{fill:none;stroke:#61AA1A;stroke-width:2;stroke-miterlimit:10;}
</style>
<title>dum_pcline</title>
<polygon class="st0" points="231,268 231,268 24,268 24,268 24,141 24,141 231,141 231,141 "/>
<polygon class="st0" points="240,295 226,295 10.8,295 1,283.5 1,274 1,274 253,274 253,274 253,282.8 "/>
<polyline class="st0" points="93.8,227.8 124,197.3 153.3,227.8 "/>
<polyline class="st0" points="101,235 101,258 145,258 145,235 "/>
<polygon class="st0" points="132,245 132,245 115,245 115,245 115,231 115,231 132,231 132,231 "/>
<polygon class="st0" points="245,268 245,268 11,268 11,268 11,130 11,130 245,130 245,130 "/>
<polyline class="st0" points="293.8,165.6 312.1,147.1 330,165.6 "/>
<polyline class="st0" points="298,170 298,185 324,185 324,170 "/>
<polygon class="st0" points="317,177 317,177 306,177 306,177 306,168 306,168 317,168 317,168 "/>
<path class="st0" d="M291,11h99c2.8,0,5,2.2,5,5v168c0,2.8-2.2,5-5,5h-99c-2.8,0-5-2.2-5-5V16C286,13.2,288.2,11,291,11z"/>
<path class="st0" d="M279,1h123c2.8,0,5,2.2,5,5v201c0,2.8-2.2,5-5,5H279c-2.8,0-5-2.2-5-5V6C274,3.2,276.2,1,279,1z"/>
<rect x="177" y="150" class="st0" width="38" height="78"/>
<polygon class="st0" points="189.6,170 182.9,170 182.9,170 189.6,170 "/>
<line class="st0" x1="189" y1="170" x2="189" y2="161"/>
<polygon class="st0" points="210.4,170 203.6,170 203.6,170 210.4,170 "/>
<line class="st0" x1="210" y1="168" x2="210" y2="160"/>
<polygon class="st0" points="200.6,170 193.8,170 193.8,170 200.6,170 "/>
<line class="st0" x1="200" y1="168" x2="200" y2="160"/>
<polygon class="st0" points="200.2,182 193.5,182 193.5,182 200.2,182 "/>
<line class="st0" x1="200" y1="182" x2="200" y2="174"/>
<polygon class="st0" points="210,182 203.2,182 203.2,182 210,182 "/>
<line class="st0" x1="210" y1="182" x2="210" y2="173"/>
<polygon class="st0" points="201.3,198 194.5,198 194.5,198 201.3,198 "/>
<line class="st0" x1="201" y1="197" x2="201" y2="190"/>
<polygon class="st0" points="200.9,211 194.2,211 194.2,211 200.9,211 "/>
<line class="st0" x1="201" y1="211" x2="201" y2="202"/>
<polygon class="st0" points="210.4,198 203.6,198 203.6,198 210.4,198 "/>
<line class="st0" x1="210" y1="197" x2="210" y2="190"/>
<polygon class="st0" points="211.4,211 204.6,211 204.6,211 211.4,211 "/>
<line class="st0" x1="211" y1="211" x2="211" y2="202"/>
<polygon class="st0" points="189.6,184 182.9,184 182.9,184 189.6,184 "/>
<line class="st0" x1="189" y1="184" x2="189" y2="175"/>
<polygon class="st0" points="189.6,198 182.9,198 182.9,198 189.6,198 "/>
<line class="st0" x1="189" y1="198" x2="189" y2="190"/>
<polygon class="st0" points="189.6,211 182.9,211 182.9,211 189.6,211 "/>
<line class="st0" x1="189" y1="211" x2="189" y2="202"/>
<polyline class="st0" points="191,225 191,215 211,215 211,225 "/>
<polyline class="st0" points="219.7,152.4 226,161.1 226,225 "/>
<polyline class="st0" points="49,236 49,257 60,257 60,236 "/>
<polyline class="st0" points="39.1,235.5 55.5,219.1 72.5,236.1 "/>
<polyline class="st0" points="42,195.9 54.3,183.7 67.9,197.3 "/>
<polyline class="st0" points="41,215.9 56.2,200.7 69.5,214.1 "/>
<polyline class="st0" points="355,163 355,184 366,184 366,163 "/>
<polyline class="st0" points="345.1,162.5 361.5,146.1 378.5,163.1 "/>
<polyline class="st0" points="348,122.9 360.3,110.7 373.9,124.3 "/>
<polyline class="st0" points="347,142.9 362.1,127.7 375.5,141.1 "/>
<polyline class="st0" points="295.7,118.3 331,75.7 347,97 360.3,84.3 375,51.7 386.3,79 "/>
</svg>
