<svg xmlns="http://www.w3.org/2000/svg" viewBox="0 0 1320.41 1165.01"><defs><style>.cls-1{fill:none;stroke-width:1.31px;}.cls-1,.cls-2{stroke:#cbccc1;}.cls-2{fill:#cbccc1;stroke-width:1.11px;}</style></defs><title>genkou</title><g id="レイヤー_2" data-name="レイヤー 2"><g id="PC"><g id="hero"><rect class="cls-1" x="15.37" y="237.92" width="133.87" height="133.87" transform="translate(-73.42 30.15) rotate(-14.44)"/><rect class="cls-1" x="48.75" y="367.56" width="133.87" height="133.87" transform="translate(-104.69 42.58) rotate(-14.44)"/><rect class="cls-1" x="82.14" y="497.21" width="133.87" height="133.87" transform="translate(-135.97 54.99) rotate(-14.44)"/><rect class="cls-1" x="115.52" y="626.85" width="133.87" height="133.87" transform="translate(-167.24 67.41) rotate(-14.44)"/><rect class="cls-1" x="148.9" y="756.49" width="133.87" height="133.87" transform="translate(-198.52 79.84) rotate(-14.44)"/><rect class="cls-1" x="182.28" y="886.13" width="133.87" height="133.87" transform="translate(-229.79 92.26) rotate(-14.44)"/><rect class="cls-1" x="215.67" y="1015.77" width="133.87" height="133.87" transform="translate(-261.06 104.67) rotate(-14.44)"/><rect class="cls-1" x="188.23" y="193.41" width="133.87" height="133.87" transform="translate(-56.86 71.85) rotate(-14.44)"/><rect class="cls-1" x="221.61" y="323.05" width="133.87" height="133.87" transform="translate(-88.13 84.27) rotate(-14.44)"/><rect class="cls-1" x="254.99" y="452.7" width="133.87" height="133.87" transform="translate(-119.41 96.69) rotate(-14.44)"/><rect class="cls-1" x="288.38" y="582.34" width="133.87" height="133.87" transform="translate(-150.68 109.11) rotate(-14.44)"/><rect class="cls-1" x="321.76" y="711.98" width="133.87" height="133.87" transform="translate(-181.95 121.53) rotate(-14.44)"/><rect class="cls-1" x="355.14" y="841.62" width="133.87" height="133.87" transform="translate(-213.22 133.95) rotate(-14.44)"/><rect class="cls-1" x="388.52" y="971.26" width="133.87" height="133.87" transform="translate(-244.5 146.37) rotate(-14.44)"/><rect class="cls-1" x="361.09" y="148.9" width="133.87" height="133.87" transform="translate(-40.3 113.55) rotate(-14.44)"/><rect class="cls-1" x="394.47" y="278.54" width="133.87" height="133.87" transform="translate(-71.57 125.97) rotate(-14.44)"/><rect class="cls-1" x="427.85" y="408.19" width="133.87" height="133.87" transform="translate(-102.85 138.39) rotate(-14.44)"/><rect class="cls-1" x="461.23" y="537.83" width="133.87" height="133.87" transform="translate(-134.12 150.81) rotate(-14.44)"/><rect class="cls-1" x="494.62" y="667.47" width="133.87" height="133.87" transform="translate(-165.39 163.23) rotate(-14.44)"/><rect class="cls-1" x="528" y="797.11" width="133.87" height="133.87" transform="translate(-196.66 175.65) rotate(-14.44)"/><rect class="cls-1" x="561.38" y="926.75" width="133.87" height="133.87" transform="translate(-227.94 188.07) rotate(-14.44)"/><rect class="cls-1" x="533.94" y="104.39" width="133.87" height="133.87" transform="translate(-23.74 155.25) rotate(-14.44)"/><rect class="cls-1" x="567.32" y="234.03" width="133.87" height="133.87" transform="translate(-55.01 167.67) rotate(-14.44)"/><rect class="cls-1" x="634.09" y="493.32" width="133.87" height="133.87" transform="translate(-117.56 192.51) rotate(-14.44)"/><rect class="cls-1" x="667.47" y="622.96" width="133.87" height="133.87" transform="translate(-148.83 204.93) rotate(-14.44)"/><rect class="cls-1" x="700.85" y="752.6" width="133.87" height="133.87" transform="translate(-180.11 217.35) rotate(-14.44)"/><rect class="cls-1" x="734.23" y="882.24" width="133.87" height="133.87" transform="translate(-211.38 229.76) rotate(-14.44)"/><rect class="cls-1" x="706.79" y="59.88" width="133.87" height="133.87" transform="translate(-7.18 196.95) rotate(-14.44)"/><rect class="cls-1" x="740.17" y="189.52" width="133.87" height="133.87" transform="translate(-38.45 209.36) rotate(-14.44)"/><rect class="cls-1" x="773.55" y="319.17" width="133.87" height="133.87" transform="translate(-69.73 221.79) rotate(-14.44)"/><rect class="cls-1" x="806.94" y="448.81" width="133.87" height="133.87" transform="translate(-101 234.21) rotate(-14.44)"/><rect class="cls-1" x="840.32" y="578.45" width="133.87" height="133.87" transform="translate(-132.27 246.62) rotate(-14.44)"/><rect class="cls-1" x="873.7" y="708.09" width="133.87" height="133.87" transform="translate(-163.55 259.04) rotate(-14.44)"/><rect class="cls-1" x="907.08" y="837.73" width="133.87" height="133.87" transform="translate(-194.82 271.46) rotate(-14.44)"/><rect class="cls-1" x="879.65" y="15.37" width="133.87" height="133.87" transform="translate(9.38 238.64) rotate(-14.44)"/><rect class="cls-1" x="913.03" y="145.01" width="133.87" height="133.87" transform="translate(-21.89 251.07) rotate(-14.44)"/><rect class="cls-1" x="946.41" y="274.66" width="133.87" height="133.87" transform="translate(-53.17 263.48) rotate(-14.44)"/><rect class="cls-1" x="979.79" y="404.3" width="133.87" height="133.87" transform="translate(-84.44 275.91) rotate(-14.44)"/><rect class="cls-1" x="1013.18" y="533.94" width="133.87" height="133.87" transform="translate(-115.71 288.32) rotate(-14.44)"/><rect class="cls-1" x="1046.56" y="663.58" width="133.87" height="133.87" transform="translate(-146.99 300.75) rotate(-14.44)"/><rect class="cls-1" x="1079.94" y="793.22" width="133.87" height="133.87" transform="translate(-178.26 313.17) rotate(-14.44)"/><polygon class="cls-2" points="1319.63 546.88 1245.4 526.98 1189.99 580.26 1171.45 508.24 1301.09 474.86 1319.63 546.88"/></g></g></g></svg>