<svg xmlns="http://www.w3.org/2000/svg" viewBox="0 0 1516.68 1200.88"><defs><style>.cls-1{fill:none;}.cls-1,.cls-2{stroke:#cbccc1;}.cls-2{fill:#707070;}</style></defs><title>herobg</title><g id="レイヤー_2" data-name="レイヤー 2"><g id="hero"><g id="原稿用紙"><rect class="cls-1" x="11.01" y="473.55" width="82.87" height="82.87" transform="translate(-149.72 38.45) rotate(-17.17)"/><rect class="cls-1" x="35.48" y="552.73" width="82.88" height="82.87" transform="translate(-172 49.2) rotate(-17.17)"/><rect class="cls-1" x="59.95" y="631.91" width="82.88" height="82.87" transform="translate(-194.29 59.96) rotate(-17.17)"/><rect class="cls-1" x="84.42" y="711.09" width="82.87" height="82.87" transform="translate(-216.58 70.71) rotate(-17.17)"/><rect class="cls-1" x="108.89" y="790.27" width="82.87" height="82.87" transform="translate(-238.87 81.47) rotate(-17.17)"/><rect class="cls-1" x="133.36" y="869.45" width="82.87" height="82.88" transform="translate(-261.15 92.22) rotate(-17.17)"/><rect class="cls-1" x="157.83" y="948.63" width="82.87" height="82.88" transform="translate(-283.45 102.98) rotate(-17.17)"/><rect class="cls-1" x="182.3" y="1027.82" width="82.87" height="82.88" transform="translate(-305.73 113.73) rotate(-17.17)"/><rect class="cls-1" x="206.77" y="1107" width="82.88" height="82.87" transform="translate(-328.01 124.48) rotate(-17.17)"/><line class="cls-1" x1="220.85" y1="1200.26" x2="300.03" y2="1175.79"/><rect class="cls-1" x="18.71" y="124.2" width="82.87" height="82.87" transform="translate(-46.22 25.14) rotate(-17.17)"/><rect class="cls-1" x="43.18" y="203.38" width="82.88" height="82.87" transform="translate(-68.51 35.9) rotate(-17.17)"/><rect class="cls-1" x="67.65" y="282.56" width="82.88" height="82.87" transform="translate(-90.8 46.65) rotate(-17.17)"/><rect class="cls-1" x="92.12" y="361.74" width="82.87" height="82.88" transform="translate(-113.09 57.41) rotate(-17.17)"/><rect class="cls-1" x="116.59" y="440.92" width="82.88" height="82.87" transform="translate(-135.38 68.16) rotate(-17.17)"/><rect class="cls-1" x="141.06" y="520.1" width="82.88" height="82.87" transform="translate(-157.66 78.92) rotate(-17.17)"/><rect class="cls-1" x="165.53" y="599.28" width="82.87" height="82.88" transform="translate(-179.95 89.67) rotate(-17.17)"/><rect class="cls-1" x="189.99" y="678.46" width="82.87" height="82.87" transform="translate(-202.24 100.43) rotate(-17.17)"/><rect class="cls-1" x="214.46" y="757.65" width="82.87" height="82.87" transform="matrix(0.96, -0.3, 0.3, 0.96, -224.52, 111.18)"/><rect class="cls-1" x="238.93" y="836.82" width="82.88" height="82.88" transform="translate(-246.81 121.94) rotate(-17.17)"/><rect class="cls-1" x="263.4" y="916.01" width="82.88" height="82.88" transform="translate(-269.1 132.69) rotate(-17.17)"/><rect class="cls-1" x="287.88" y="995.19" width="82.88" height="82.88" transform="translate(-291.39 143.45) rotate(-17.17)"/><rect class="cls-1" x="312.34" y="1074.37" width="82.88" height="82.87" transform="translate(-313.68 154.21) rotate(-17.17)"/><rect class="cls-1" x="124.28" y="91.57" width="82.88" height="82.87" transform="translate(-31.88 54.86) rotate(-17.17)"/><rect class="cls-1" x="148.75" y="170.75" width="82.87" height="82.88" transform="translate(-54.17 65.62) rotate(-17.17)"/><rect class="cls-1" x="173.22" y="249.94" width="82.88" height="82.87" transform="translate(-76.46 76.37) rotate(-17.17)"/><rect class="cls-1" x="197.69" y="329.12" width="82.88" height="82.88" transform="translate(-98.75 87.12) rotate(-17.17)"/><rect class="cls-1" x="222.16" y="408.3" width="82.88" height="82.87" transform="translate(-121.04 97.88) rotate(-17.17)"/><rect class="cls-1" x="246.63" y="487.48" width="82.88" height="82.87" transform="translate(-143.32 108.64) rotate(-17.17)"/><rect class="cls-1" x="271.1" y="566.66" width="82.88" height="82.88" transform="translate(-165.61 119.39) rotate(-17.17)"/><rect class="cls-1" x="295.57" y="645.84" width="82.88" height="82.87" transform="translate(-187.9 130.15) rotate(-17.17)"/><rect class="cls-1" x="320.04" y="725.02" width="82.88" height="82.87" transform="translate(-210.19 140.9) rotate(-17.17)"/><rect class="cls-1" x="344.51" y="804.2" width="82.88" height="82.88" transform="translate(-232.48 151.66) rotate(-17.17)"/><rect class="cls-1" x="368.98" y="883.38" width="82.88" height="82.88" transform="translate(-254.77 162.41) rotate(-17.17)"/><rect class="cls-1" x="393.45" y="962.56" width="82.87" height="82.87" transform="translate(-277.05 173.17) rotate(-17.17)"/><rect class="cls-1" x="417.92" y="1041.74" width="82.87" height="82.88" transform="translate(-299.34 183.92) rotate(-17.17)"/><line class="cls-1" x1="87.5" y1="113.81" x2="113.89" y2="105.66"/><rect class="cls-1" x="254.32" y="138.13" width="82.88" height="82.88" transform="translate(-39.83 95.33) rotate(-17.17)"/><rect class="cls-1" x="278.79" y="217.31" width="82.88" height="82.87" transform="matrix(0.96, -0.3, 0.3, 0.96, -62.12, 106.09)"/><rect class="cls-1" x="306.26" y="296.49" width="82.88" height="82.88" transform="translate(-84.27 117.73) rotate(-17.17)"/><rect class="cls-1" x="327.73" y="375.67" width="82.88" height="82.87" transform="translate(-106.7 127.6) rotate(-17.17)"/><rect class="cls-1" x="352.2" y="454.85" width="82.87" height="82.87" transform="translate(-128.98 138.35) rotate(-17.17)"/><rect class="cls-1" x="376.67" y="534.03" width="82.87" height="82.87" transform="translate(-151.27 149.11) rotate(-17.17)"/><rect class="cls-1" x="401.14" y="613.21" width="82.88" height="82.87" transform="translate(-173.56 159.86) rotate(-17.17)"/><rect class="cls-1" x="425.61" y="692.39" width="82.88" height="82.87" transform="translate(-195.85 170.62) rotate(-17.17)"/><rect class="cls-1" x="450.08" y="771.57" width="82.88" height="82.88" transform="translate(-218.13 181.37) rotate(-17.17)"/><rect class="cls-1" x="474.55" y="850.75" width="82.87" height="82.88" transform="translate(-240.42 192.13) rotate(-17.17)"/><rect class="cls-1" x="499.02" y="929.94" width="82.88" height="82.87" transform="translate(-262.71 202.88) rotate(-17.17)"/><rect class="cls-1" x="523.49" y="1009.12" width="82.88" height="82.88" transform="translate(-285 213.64) rotate(-17.17)"/><rect class="cls-1" x="384.37" y="184.68" width="82.88" height="82.87" transform="translate(-47.78 135.8) rotate(-17.17)"/><rect class="cls-1" x="408.84" y="263.86" width="82.87" height="82.88" transform="translate(-70.07 146.56) rotate(-17.17)"/><rect class="cls-1" x="433.31" y="343.05" width="82.88" height="82.87" transform="translate(-92.36 157.32) rotate(-17.17)"/><rect class="cls-1" x="457.78" y="422.22" width="82.88" height="82.87" transform="translate(-114.64 168.07) rotate(-17.17)"/><rect class="cls-1" x="482.25" y="501.4" width="82.88" height="82.88" transform="translate(-136.93 178.82) rotate(-17.17)"/><rect class="cls-1" x="506.72" y="580.59" width="82.88" height="82.87" transform="translate(-159.22 189.58) rotate(-17.17)"/><rect class="cls-1" x="531.19" y="659.77" width="82.87" height="82.87" transform="translate(-181.51 200.34) rotate(-17.17)"/><rect class="cls-1" x="555.66" y="738.95" width="82.87" height="82.88" transform="translate(-203.8 211.09) rotate(-17.17)"/><rect class="cls-1" x="580.13" y="818.13" width="82.88" height="82.87" transform="translate(-226.08 221.84) rotate(-17.17)"/><rect class="cls-1" x="604.6" y="897.31" width="82.88" height="82.87" transform="translate(-248.37 232.6) rotate(-17.17)"/><rect class="cls-1" x="629.07" y="976.49" width="82.88" height="82.88" transform="translate(-270.66 243.36) rotate(-17.17)"/><rect class="cls-1" x="489.94" y="152.06" width="82.87" height="82.87" transform="translate(-33.44 165.52) rotate(-17.17)"/><rect class="cls-1" x="514.41" y="231.24" width="82.88" height="82.88" transform="translate(-55.73 176.27) rotate(-17.17)"/><rect class="cls-1" x="538.88" y="310.42" width="82.87" height="82.87" transform="translate(-78.02 187.03) rotate(-17.17)"/><rect class="cls-1" x="563.35" y="389.6" width="82.87" height="82.87" transform="translate(-100.3 197.79) rotate(-17.17)"/><rect class="cls-1" x="587.82" y="468.78" width="82.88" height="82.88" transform="translate(-122.59 208.54) rotate(-17.17)"/><rect class="cls-1" x="612.29" y="547.96" width="82.88" height="82.87" transform="translate(-144.88 219.29) rotate(-17.17)"/><rect class="cls-1" x="636.76" y="627.14" width="82.88" height="82.87" transform="translate(-167.17 230.05) rotate(-17.17)"/><rect class="cls-1" x="661.23" y="706.32" width="82.88" height="82.88" transform="matrix(0.96, -0.3, 0.3, 0.96, -189.46, 240.81)"/><rect class="cls-1" x="685.7" y="785.5" width="82.88" height="82.88" transform="translate(-211.74 251.56) rotate(-17.17)"/><rect class="cls-1" x="710.17" y="864.69" width="82.88" height="82.88" transform="translate(-234.03 262.32) rotate(-17.17)"/><rect class="cls-1" x="734.64" y="943.87" width="82.88" height="82.88" transform="translate(-256.32 273.07) rotate(-17.17)"/><rect class="cls-1" x="619.99" y="198.61" width="82.87" height="82.87" transform="matrix(0.96, -0.3, 0.3, 0.96, -41.39, 206)"/><rect class="cls-1" x="644.46" y="277.79" width="82.88" height="82.87" transform="translate(-63.68 216.74) rotate(-17.17)"/><rect class="cls-1" x="668.92" y="356.97" width="82.88" height="82.87" transform="translate(-85.96 227.5) rotate(-17.17)"/><rect class="cls-1" x="693.39" y="436.15" width="82.88" height="82.87" transform="translate(-108.25 238.26) rotate(-17.17)"/><rect class="cls-1" x="717.86" y="515.33" width="82.88" height="82.87" transform="translate(-130.54 249.01) rotate(-17.17)"/><rect class="cls-1" x="742.33" y="594.51" width="82.88" height="82.87" transform="translate(-152.83 259.76) rotate(-17.17)"/><rect class="cls-1" x="766.8" y="673.69" width="82.88" height="82.88" transform="translate(-175.12 270.53) rotate(-17.17)"/><rect class="cls-1" x="791.27" y="752.88" width="82.87" height="82.88" transform="translate(-197.4 281.28) rotate(-17.17)"/><rect class="cls-1" x="815.74" y="832.06" width="82.87" height="82.88" transform="translate(-219.69 292.03) rotate(-17.17)"/><rect class="cls-1" x="840.21" y="911.24" width="82.87" height="82.88" transform="translate(-241.97 302.78) rotate(-17.17)"/><rect class="cls-1" x="725.56" y="165.99" width="82.88" height="82.88" transform="translate(-27.05 235.71) rotate(-17.17)"/><rect class="cls-1" x="750.03" y="245.17" width="82.88" height="82.87" transform="translate(-49.34 246.47) rotate(-17.17)"/><rect class="cls-1" x="774.5" y="324.34" width="82.88" height="82.87" transform="translate(-71.62 257.22) rotate(-17.17)"/><rect class="cls-1" x="798.97" y="403.52" width="82.87" height="82.88" transform="translate(-93.91 267.98) rotate(-17.17)"/><rect class="cls-1" x="823.44" y="482.71" width="82.88" height="82.87" transform="translate(-116.2 278.73) rotate(-17.17)"/><rect class="cls-1" x="847.91" y="561.89" width="82.88" height="82.87" transform="translate(-138.49 289.49) rotate(-17.17)"/><rect class="cls-1" x="872.38" y="641.07" width="82.88" height="82.88" transform="translate(-160.78 300.24) rotate(-17.17)"/><rect class="cls-1" x="896.85" y="720.25" width="82.88" height="82.88" transform="translate(-183.06 310.99) rotate(-17.17)"/><rect class="cls-1" x="921.32" y="799.43" width="82.88" height="82.87" transform="translate(-205.35 321.75) rotate(-17.17)"/><rect class="cls-1" x="945.79" y="878.61" width="82.87" height="82.88" transform="translate(-227.64 332.5) rotate(-17.17)"/><rect class="cls-1" x="1237.14" y="788.25" width="82.88" height="82.87" transform="translate(-187.97 414.5) rotate(-17.17)"/><rect class="cls-1" x="1130.41" y="820.76" width="82.87" height="82.88" transform="translate(-202.32 384.43) rotate(-17.17)"/><rect class="cls-1" x="910.31" y="108.89" width="82.87" height="82.88" transform="translate(-1.95 287.71) rotate(-17.17)"/><rect class="cls-1" x="934.78" y="188.07" width="82.88" height="82.87" transform="translate(-24.24 298.47) rotate(-17.17)"/><rect class="cls-1" x="959.25" y="267.25" width="82.88" height="82.87" transform="translate(-46.53 309.23) rotate(-17.17)"/><rect class="cls-1" x="983.72" y="346.43" width="82.88" height="82.87" transform="translate(-68.82 319.98) rotate(-17.17)"/><rect class="cls-1" x="1008.19" y="425.61" width="82.88" height="82.87" transform="translate(-91.1 330.73) rotate(-17.17)"/><rect class="cls-1" x="1032.66" y="504.79" width="82.88" height="82.87" transform="translate(-113.39 341.49) rotate(-17.17)"/><rect class="cls-1" x="1057.13" y="583.97" width="82.88" height="82.88" transform="translate(-135.68 352.24) rotate(-17.17)"/><rect class="cls-1" x="1081.6" y="663.16" width="82.88" height="82.88" transform="translate(-157.97 363) rotate(-17.17)"/><rect class="cls-1" x="1106.07" y="742.34" width="82.88" height="82.88" transform="translate(-180.26 373.75) rotate(-17.17)"/><rect class="cls-1" x="1015.88" y="76.27" width="82.88" height="82.88" transform="translate(12.39 317.43) rotate(-17.17)"/><rect class="cls-1" x="1040.35" y="155.45" width="82.88" height="82.87" transform="translate(-9.9 328.19) rotate(-17.17)"/><rect class="cls-1" x="1064.82" y="234.62" width="82.88" height="82.87" transform="translate(-32.19 338.93) rotate(-17.17)"/><rect class="cls-1" x="1089.29" y="313.8" width="82.88" height="82.88" transform="translate(-54.48 349.7) rotate(-17.17)"/><rect class="cls-1" x="1117.76" y="392.99" width="82.88" height="82.87" transform="translate(-76.59 361.63) rotate(-17.17)"/><rect class="cls-1" x="1138.23" y="472.17" width="82.88" height="82.87" transform="translate(-99.05 371.2) rotate(-17.17)"/><rect class="cls-1" x="1162.7" y="551.35" width="82.88" height="82.88" transform="translate(-121.34 381.96) rotate(-17.17)"/><rect class="cls-1" x="1187.17" y="630.53" width="82.88" height="82.88" transform="translate(-143.63 392.71) rotate(-17.17)"/><rect class="cls-1" x="1211.64" y="709.71" width="82.88" height="82.87" transform="translate(-165.92 403.47) rotate(-17.17)"/><rect class="cls-1" x="1121.46" y="43.64" width="82.88" height="82.88" transform="translate(26.72 347.14) rotate(-17.17)"/><rect class="cls-1" x="1145.93" y="122.82" width="82.87" height="82.87" transform="translate(4.44 357.9) rotate(-17.17)"/><rect class="cls-1" x="1170.39" y="202" width="82.87" height="82.87" transform="translate(-17.85 368.66) rotate(-17.17)"/><rect class="cls-1" x="1194.86" y="281.18" width="82.88" height="82.88" transform="matrix(0.96, -0.3, 0.3, 0.96, -40.14, 379.41)"/><rect class="cls-1" x="1219.33" y="360.36" width="82.88" height="82.87" transform="translate(-62.43 390.17) rotate(-17.17)"/><rect class="cls-1" x="1243.8" y="439.54" width="82.88" height="82.87" transform="translate(-84.71 400.92) rotate(-17.17)"/><rect class="cls-1" x="1268.27" y="518.72" width="82.88" height="82.88" transform="translate(-107 411.68) rotate(-17.17)"/><rect class="cls-1" x="1292.74" y="597.9" width="82.87" height="82.88" transform="translate(-129.29 422.44) rotate(-17.17)"/><rect class="cls-1" x="1317.21" y="677.09" width="82.88" height="82.88" transform="translate(-151.58 433.19) rotate(-17.17)"/><rect class="cls-1" x="1227.03" y="11.01" width="82.87" height="82.87" transform="translate(41.07 376.87) rotate(-17.17)"/><rect class="cls-1" x="1251.5" y="90.19" width="82.88" height="82.87" transform="translate(18.78 387.61) rotate(-17.17)"/><rect class="cls-1" x="1275.97" y="169.37" width="82.88" height="82.87" transform="translate(-3.51 398.37) rotate(-17.17)"/><rect class="cls-1" x="1300.44" y="248.55" width="82.88" height="82.88" transform="translate(-25.8 409.13) rotate(-17.17)"/><rect class="cls-1" x="1324.91" y="327.73" width="82.88" height="82.87" transform="translate(-48.09 419.89) rotate(-17.17)"/><rect class="cls-1" x="1349.38" y="406.92" width="82.88" height="82.87" transform="translate(-70.37 430.64) rotate(-17.17)"/><rect class="cls-1" x="1373.85" y="486.1" width="82.88" height="82.88" transform="translate(-92.66 441.39) rotate(-17.17)"/><rect class="cls-1" x="1398.32" y="565.28" width="82.88" height="82.88" transform="translate(-114.95 452.15) rotate(-17.17)"/><rect class="cls-1" x="1422.79" y="644.46" width="82.87" height="82.88" transform="translate(-137.24 462.9) rotate(-17.17)"/><polygon class="cls-2" points="923.18 250 876.69 239.88 844 274.47 830.4 230.48 909.58 206.01 923.18 250"/></g></g></g></svg>