<?xml version="1.0" encoding="utf-8"?>
<!-- Generator: Adobe Illustrator 15.0.2, SVG Export Plug-In . SVG Version: 6.00 Build 0)  -->
<!DOCTYPE svg PUBLIC "-//W3C//DTD SVG 1.1//EN" "http://www.w3.org/Graphics/SVG/1.1/DTD/svg11.dtd">
<svg version="1.1" id="レイヤー_1" xmlns="http://www.w3.org/2000/svg" xmlns:xlink="http://www.w3.org/1999/xlink" x="0px"
	 y="0px" width="424px" height="305px" viewBox="0 0 424 305" enable-background="new 0 0 424 305" xml:space="preserve">
<polygon fill="#FFFFFF" stroke="#61AA1A" stroke-width="2" stroke-miterlimit="10" points="18,135 18,273 31,273 31,146 238,146 
	238,273 252,273 252,135 "/>
<polygon fill="#FFFFFF" stroke="#61AA1A" stroke-width="2" stroke-miterlimit="10" points="247,300 233,300 17.75,300 8,288.5 
	8,279 8,279 260,279 260,279 260,287.75 "/>
<polyline fill="none" stroke="#61AA1A" stroke-width="2" stroke-miterlimit="10" points="100.75,232.75 131,202.28 160.338,232.75 
	"/>
<polyline fill="none" stroke="#61AA1A" stroke-width="2" stroke-miterlimit="10" points="108,240 108,263 152,263 152,240 "/>
<polygon fill="none" stroke="#61AA1A" stroke-width="2" stroke-miterlimit="10" points="139,250 139,250 122,250 122,250 122,236 
	122,236 139,236 139,236 "/>
<polyline fill="none" stroke="#61AA1A" stroke-width="2" stroke-miterlimit="10" points="300.75,170.595 319.155,152.057 
	337.005,170.595 "/>
<polyline fill="none" stroke="#61AA1A" stroke-width="2" stroke-miterlimit="10" points="305,175 305,190 331,190 331,175 "/>
<polygon fill="none" stroke="#61AA1A" stroke-width="2" stroke-miterlimit="10" points="324,182 324,182 313,182 313,182 313,173 
	313,173 324,173 324,173 "/>
<path fill="#FFFFFF" stroke="#61AA1A" stroke-width="2" stroke-miterlimit="10" d="M409,6H286c-2.762,0-5,2.238-5,5v201
	c0,2.762,2.238,5,5,5h123c2.762,0,5-2.238,5-5V11C414,8.238,411.762,6,409,6z M402,189c0,2.762-2.238,5-5,5h-99
	c-2.762,0-5-2.238-5-5V21c0-2.762,2.238-5,5-5h99c2.762,0,5,2.238,5,5V189z"/>
<rect x="184" y="155" fill="none" stroke="#61AA1A" stroke-width="2" stroke-miterlimit="10" width="38" height="78"/>
<g>
	<rect x="189.865" y="175" fill="none" stroke="#61AA1A" stroke-width="2" stroke-miterlimit="10" width="6.756" height="0"/>
	<line fill="none" stroke="#61AA1A" stroke-width="2" stroke-miterlimit="10" x1="196" y1="175" x2="196" y2="166"/>
</g>
<g>
	<rect x="210.598" y="175" fill="none" stroke="#61AA1A" stroke-width="2" stroke-miterlimit="10" width="6.755" height="0"/>
	<line fill="none" stroke="#61AA1A" stroke-width="2" stroke-miterlimit="10" x1="217" y1="173" x2="217" y2="165"/>
</g>
<g>
	<rect x="200.813" y="175" fill="none" stroke="#61AA1A" stroke-width="2" stroke-miterlimit="10" width="6.755" height="0"/>
	<line fill="none" stroke="#61AA1A" stroke-width="2" stroke-miterlimit="10" x1="207" y1="173" x2="207" y2="165"/>
</g>
<g>
	<rect x="200.464" y="187" fill="none" stroke="#61AA1A" stroke-width="2" stroke-miterlimit="10" width="6.756" height="0"/>
	<line fill="none" stroke="#61AA1A" stroke-width="2" stroke-miterlimit="10" x1="207" y1="187" x2="207" y2="179"/>
</g>
<g>
	<rect x="210.247" y="187" fill="none" stroke="#61AA1A" stroke-width="2" stroke-miterlimit="10" width="6.756" height="0"/>
	<line fill="none" stroke="#61AA1A" stroke-width="2" stroke-miterlimit="10" x1="217" y1="187" x2="217" y2="178"/>
</g>
<g>
	<rect x="201.513" y="203" fill="none" stroke="#61AA1A" stroke-width="2" stroke-miterlimit="10" width="6.755" height="0"/>
	<line fill="none" stroke="#61AA1A" stroke-width="2" stroke-miterlimit="10" x1="208" y1="202" x2="208" y2="195"/>
</g>
<g>
	<rect x="201.163" y="216" fill="none" stroke="#61AA1A" stroke-width="2" stroke-miterlimit="10" width="6.755" height="0"/>
	<line fill="none" stroke="#61AA1A" stroke-width="2" stroke-miterlimit="10" x1="208" y1="216" x2="208" y2="207"/>
</g>
<g>
	<rect x="210.598" y="203" fill="none" stroke="#61AA1A" stroke-width="2" stroke-miterlimit="10" width="6.755" height="0"/>
	<line fill="none" stroke="#61AA1A" stroke-width="2" stroke-miterlimit="10" x1="217" y1="202" x2="217" y2="195"/>
</g>
<g>
	<rect x="211.646" y="216" fill="none" stroke="#61AA1A" stroke-width="2" stroke-miterlimit="10" width="6.756" height="0"/>
	<line fill="none" stroke="#61AA1A" stroke-width="2" stroke-miterlimit="10" x1="218" y1="216" x2="218" y2="207"/>
</g>
<g>
	<rect x="189.865" y="189" fill="none" stroke="#61AA1A" stroke-width="2" stroke-miterlimit="10" width="6.756" height="0"/>
	<line fill="none" stroke="#61AA1A" stroke-width="2" stroke-miterlimit="10" x1="196" y1="189" x2="196" y2="180"/>
</g>
<g>
	<rect x="189.865" y="203" fill="none" stroke="#61AA1A" stroke-width="2" stroke-miterlimit="10" width="6.756" height="0"/>
	<line fill="none" stroke="#61AA1A" stroke-width="2" stroke-miterlimit="10" x1="196" y1="203" x2="196" y2="195"/>
</g>
<g>
	<rect x="189.865" y="216" fill="none" stroke="#61AA1A" stroke-width="2" stroke-miterlimit="10" width="6.756" height="0"/>
	<line fill="none" stroke="#61AA1A" stroke-width="2" stroke-miterlimit="10" x1="196" y1="216" x2="196" y2="207"/>
</g>
<polyline fill="none" stroke="#61AA1A" stroke-width="2" stroke-miterlimit="10" points="198,230 198,220 218,220 218,230 "/>
<polyline fill="none" stroke="#61AA1A" stroke-width="2" stroke-miterlimit="10" points="226.711,157.355 233,166.054 233,230 "/>
<polyline fill="none" stroke="#61AA1A" stroke-width="2" stroke-miterlimit="10" points="56,241 56,262 67,262 67,241 "/>
<polyline fill="none" stroke="#61AA1A" stroke-width="2" stroke-miterlimit="10" points="46.082,240.513 62.492,224.104 
	79.482,241.094 "/>
<polyline fill="none" stroke="#61AA1A" stroke-width="2" stroke-miterlimit="10" points="49.033,200.953 61.292,188.693 
	74.869,202.271 "/>
<polyline fill="none" stroke="#61AA1A" stroke-width="2" stroke-miterlimit="10" points="47.989,220.871 63.146,205.714 
	76.539,219.107 "/>
<polyline fill="none" stroke="#61AA1A" stroke-width="2" stroke-miterlimit="10" points="362,168 362,189 373,189 373,168 "/>
<polyline fill="none" stroke="#61AA1A" stroke-width="2" stroke-miterlimit="10" points="352.082,167.513 368.492,151.104 
	385.482,168.094 "/>
<polyline fill="none" stroke="#61AA1A" stroke-width="2" stroke-miterlimit="10" points="355.033,127.953 367.292,115.693 
	380.869,129.271 "/>
<polyline fill="none" stroke="#61AA1A" stroke-width="2" stroke-miterlimit="10" points="353.989,147.871 369.146,132.714 
	382.539,146.107 "/>
<polyline fill="none" stroke="#61AA1A" stroke-width="2" stroke-miterlimit="10" points="302.667,123.333 338.001,80.667 
	353.954,102 367.334,89.333 382.001,56.667 393.334,84 "/>
</svg>
