<svg xmlns="http://www.w3.org/2000/svg" viewBox="0 0 79 66.59"><defs><style>.cls-1{fill-rule:evenodd;}</style></defs><title>pcfile</title><g id="レイヤー_2" data-name="レイヤー 2"><g id="pc_regular"><path d="M41.43,66.59a3.27,3.27,0,0,1-3.27-3.26V16.42a3.28,3.28,0,0,1,3.27-3.27H67L79,25v38.3a3.26,3.26,0,0,1-3.27,3.26ZM74.31,61.9V29.57H62.58V17.85H42.85V61.9Zm-2.25-37-4.78-4.79v4.79ZM68.24,35.39h-20v-4.5h20Zm0,5.9h-20V36.78h20Zm0,6.63h-20v-4.5h20ZM65,55.3H48.28V50.79H65Z"/><path class="cls-1" d="M34.17,44.81l-.75-5.89H37.7V31.23H3.25V3.62H52.68V15.71h3.25V3.08A3,3,0,0,0,53.09,0H2.84A3,3,0,0,0,0,3.08V35.84a3,3,0,0,0,2.84,3.08H22.58l-.81,5.89c-1,.22-3,4.06-3,4.06-.34.93.75,1.36,1.67,1.36h15c.92,0,2.15-.23,1.67-1.36C37.15,48.87,35.13,45,34.17,44.81Z"/></g></g></svg>