<svg xmlns="http://www.w3.org/2000/svg" viewBox="0 0 78.39 59.9"><title>pdfmail01</title><g id="レイヤー_2" data-name="レイヤー 2"><g id="pc_regular"><polygon points="18.32 36.12 2.96 36.12 2.96 2.96 20.58 2.96 20.58 11.4 28.72 11.4 28.72 22.4 31.68 22.4 31.68 8.65 23.32 0 0 0 0 39.08 21.25 39.08 18.32 36.12"/><path d="M7.93,20.22H9.11a2.48,2.48,0,0,0,2.65-2.7,2.52,2.52,0,0,0-2.62-2.67H6.08V23.1H7.93Zm0-3.71h.82c.67,0,1.2.25,1.2,1s-.53,1-1.19,1H7.9Z"/><polygon points="23.32 19.94 26.28 19.94 26.28 18.39 23.32 18.39 23.32 16.48 26.73 16.48 26.73 14.89 21.27 14.89 21.27 23.06 23.32 23.06 23.32 19.94"/><path d="M19,22A4.21,4.21,0,0,0,20,19a3.78,3.78,0,0,0-3.88-4.1h-3.2v8.2h3.22A3.77,3.77,0,0,0,19,22Zm-4-.67V16.65h.95c1.35,0,2.1.82,2.1,2.32S17.28,21.3,16,21.3Z"/><path d="M71.61,43.74H69.92V55.83H27.23V36.55L48.57,47l9.53-4.67a4.53,4.53,0,0,1-1.31-3.21v-.68l-8.22,4L27.23,32V28.35H56.79V24.28H23.16V59.9H74V43.07A4.59,4.59,0,0,1,71.61,43.74Z"/><path d="M76.8,40.72a1.58,1.58,0,0,1-1.58-1.58V20.25a5.71,5.71,0,0,0-1.35-3.12,5.58,5.58,0,0,0-4.51-2.06A6.37,6.37,0,0,0,64.74,17l-.2.21A5.56,5.56,0,0,0,63,20.32V37.55H70V21.47c0-.25-.14-1-.76-1a1.13,1.13,0,0,0-.83.26l0,0a1.25,1.25,0,0,0-.25.78V34.33a.61.61,0,0,1-.62.62H65.61a.62.62,0,0,1-.62-.62V21.58a4.36,4.36,0,0,1,1-2.87l.18-.18a4.14,4.14,0,0,1,3.06-1.19,3.67,3.67,0,0,1,3.19,1.71,4.66,4.66,0,0,1,.74,2.42V39.14a1.59,1.59,0,0,1-1.59,1.58H61.39a1.54,1.54,0,0,1-1.12-.46,1.58,1.58,0,0,1-.47-1.12V20.32A8.54,8.54,0,0,1,62.2,15l.3-.31a9.64,9.64,0,0,1,6.86-2.83,9,9,0,0,1,9,8.35V39.14a1.59,1.59,0,0,1-1.59,1.58Z"/></g></g></svg>