<svg xmlns="http://www.w3.org/2000/svg" viewBox="0 0 118.51 72.13"><title>pdfmail02</title><g id="レイヤー_2" data-name="レイヤー 2"><g id="pc_pro"><polygon points="46.19 43.49 27.69 43.49 27.69 3.56 48.9 3.56 48.9 13.72 58.71 13.72 58.71 26.97 62.27 26.97 62.27 10.42 52.21 0 24.13 0 24.13 47.06 49.72 47.06 46.19 43.49"/><path d="M10.54,24.09H.35a.35.35,0,0,0-.35.35V35.9a.35.35,0,0,0,.35.35H10.54v4.86a.23.23,0,0,0,.39.16L21.62,30.58a.57.57,0,0,0,0-.82L10.93,19.07a.23.23,0,0,0-.39.16Z"/><path d="M33.67,24.34h1.42a3,3,0,0,0,3.2-3.24,3,3,0,0,0-3.16-3.22H31.46v9.93h2.21Zm0-4.46h1c.8,0,1.44.3,1.44,1.23s-.64,1.24-1.43,1.24h-1Z"/><polygon points="52.22 24.01 55.77 24.01 55.77 22.14 52.22 22.14 52.22 19.84 56.31 19.84 56.31 17.93 49.74 17.93 49.74 27.77 52.22 27.77 52.22 24.01"/><path d="M46.94,26.46a5.06,5.06,0,0,0,1.29-3.61c0-3-1.87-4.94-4.67-4.94H39.71v9.87h3.88A4.49,4.49,0,0,0,46.94,26.46Zm-4.77-.81v-5.6h1.15c1.63,0,2.53,1,2.53,2.8s-.92,2.8-2.51,2.8Z"/><path d="M110.36,52.66h-2V67.23H56.91V44L82.62,56.62,94.08,51a5.51,5.51,0,0,1-1.57-3.86v-.82l-9.89,4.85L56.91,38.55V34.13h35.6v-4.9H52v42.9h61.21V51.87A5.57,5.57,0,0,1,110.36,52.66Z"/><path d="M116.61,49a1.91,1.91,0,0,1-1.91-1.91V24.38a6.85,6.85,0,0,0-1.63-3.76,6.71,6.71,0,0,0-5.42-2.47,7.72,7.72,0,0,0-5.57,2.28l-.24.26A6.66,6.66,0,0,0,100,24.46V45.22h8.5V25.85c0-.3-.17-1.16-.92-1.16a1.39,1.39,0,0,0-1,.32l0,0a1.47,1.47,0,0,0-.31.94V41.34a.75.75,0,0,1-.74.75h-2.33a.75.75,0,0,1-.74-.75V26a5.21,5.21,0,0,1,1.25-3.46l.21-.22a5,5,0,0,1,3.68-1.43,4.45,4.45,0,0,1,3.85,2.05,5.58,5.58,0,0,1,.88,2.92V47.13a1.89,1.89,0,0,1-1.9,1.91H98a1.91,1.91,0,0,1-1.9-1.91V24.46A10.32,10.32,0,0,1,99,18.1l.35-.36a11.6,11.6,0,0,1,8.27-3.41,10.77,10.77,0,0,1,10.86,10V47.13a1.89,1.89,0,0,1-.55,1.35,1.92,1.92,0,0,1-1.35.56Z"/></g></g></svg>