<svg xmlns="http://www.w3.org/2000/svg" viewBox="0 0 410.02 102.86"><defs><style>.cls-1{fill:#c4eddf;}.cls-2{fill:#61aa1a;}.cls-3{fill:#cbe842;}.cls-4{fill:#f8b551;}.cls-5{fill:#bdccd4;}.cls-6{fill:#707070;}</style></defs><title>tenten1</title><g id="レイヤー_2" data-name="レイヤー 2"><g id="PC"><g id="どこでも校正"><path class="cls-1" d="M165.34,35.72a13.69,13.69,0,1,1-27.36,0,13.69,13.69,0,1,1,27.36,0Z"/><path class="cls-2" d="M73.58,74.72A13.68,13.68,0,1,1,59.91,60.57,13.91,13.91,0,0,1,73.58,74.72Z"/><path class="cls-3" d="M27.35,88.72a13.91,13.91,0,0,1-13.67,14.14,14.15,14.15,0,0,1,0-28.29A13.92,13.92,0,0,1,27.35,88.72Z"/><path class="cls-4" d="M124,51.72a13.68,13.68,0,1,1-13.68-14.15A13.91,13.91,0,0,1,124,51.72Z"/><path class="cls-5" d="M235,35.86a24.62,24.62,0,1,1-24.62-24.62A24.62,24.62,0,0,1,235,35.86Z"/><path class="cls-6" d="M315.08,33.08A29.12,29.12,0,1,1,286,4,29.11,29.11,0,0,1,315.08,33.08Z"/><circle cx="377.2" cy="32.82" r="32.82" transform="translate(259.77 392.78) rotate(-76.91)"/></g></g></g></svg>