<svg xmlns="http://www.w3.org/2000/svg" viewBox="0 0 410.02 102.86"><defs><style>.cls-1{fill:#c4eddf;}.cls-2{fill:#61aa1a;}.cls-3{fill:#cbe842;}.cls-4{fill:#f8b551;}.cls-5{fill:#bdccd4;}.cls-6{fill:#707070;}</style></defs><title>tenten2</title><g id="レイヤー_2" data-name="レイヤー 2"><g id="PC"><g id="_つのプラン" data-name="３つのプラン"><path class="cls-1" d="M244.69,35.72a13.68,13.68,0,1,0,27.35,0,13.68,13.68,0,1,0-27.35,0Z"/><path class="cls-2" d="M336.44,74.72a13.68,13.68,0,1,0,13.68-14.15A13.91,13.91,0,0,0,336.44,74.72Z"/><path class="cls-3" d="M382.67,88.72a13.68,13.68,0,1,0,13.68-14.15A13.91,13.91,0,0,0,382.67,88.72Z"/><path class="cls-4" d="M286,51.72a13.69,13.69,0,1,0,13.68-14.15A13.92,13.92,0,0,0,286,51.72Z"/><path class="cls-5" d="M175.06,35.86a24.62,24.62,0,1,0,24.62-24.62A24.62,24.62,0,0,0,175.06,35.86Z"/><path class="cls-6" d="M94.94,33.08A29.12,29.12,0,1,0,124.06,4,29.12,29.12,0,0,0,94.94,33.08Z"/><circle cx="32.82" cy="32.82" r="32.82" transform="translate(-13.6 32.82) rotate(-45)"/></g></g></g></svg>