<?xml version="1.0" encoding="utf-8"?>
<!-- Generator: Adobe Illustrator 22.1.0, SVG Export Plug-In . SVG Version: 6.00 Build 0)  -->
<svg version="1.1" id="レイヤー_1" xmlns="http://www.w3.org/2000/svg" xmlns:xlink="http://www.w3.org/1999/xlink" x="0px"
	 y="0px" viewBox="0 0 151 116" style="enable-background:new 0 0 151 116;" xml:space="preserve">
<style type="text/css">
	.st0{fill:#FFFFFF;}
	.st1{fill:#61AA1A;}
	.st2{fill:#FFFFFF;stroke:#FFFFFF;stroke-width:12;stroke-miterlimit:10;}
	.st3{stroke:#FFFFFF;stroke-width:9;stroke-miterlimit:10;}
	.st4{fill:#FFFFFF;stroke:#61AA1A;stroke-width:1.9325;stroke-linecap:round;stroke-linejoin:round;stroke-miterlimit:10;}
	.st5{stroke:#FFFFFF;stroke-width:7;stroke-miterlimit:10;}
</style>
<g id="レイヤー_2_1_">
	<path class="st0" d="M94.6,65.2c2.1,4.5,0.8,9.6-2.9,11.3L42.4,99.4c-3.7,1.7-8.4-0.5-10.5-5.1l-25.7-55c-2.1-4.5-0.7-9.6,3-11.3
		L58.5,5.1c3.7-1.7,8.4,0.5,10.5,5.1L94.6,65.2z"/>
</g>
<g>
	<ellipse class="st0" cx="111" cy="59.9" rx="16.9" ry="19.5"/>
</g>
<g>
	<g>
		<path class="st0" d="M54,3.7L12,23.2C3.9,27,0.2,36.3,3.8,44l25.7,55.3c3.6,7.7,13.1,10.9,21.2,7.1l29.2-13.6l2.3-1.1l0.9-2.3
			l12.4-31.2l0.9-2.3l-1-2.1l-20.1-43C71.7,3.1,62.2-0.1,54,3.7z M89.9,56.4l-14.4,6.7c-4.3,2-6.2,6.9-4.3,10.9l6.3,13.6l-29.2,13.6
			c-5.1,2.4-11.1,0.4-13.4-4.5L9.2,41.5C7,36.6,9.3,30.8,14.4,28.4l42-19.5c5.1-2.4,11.1-0.4,13.4,4.5L89.9,56.4L89.9,56.4z"/>
	</g>
</g>
<g>
	<path class="st1" d="M54.2,12.4L19.9,28.3c-6.6,3.1-9.5,11-6.4,17.6l22.2,47.6c3.1,6.6,11,9.5,17.6,6.4L77.1,89l1.8-0.9l0.7-1.9
		l9.6-26.4l0.7-1.9L89.1,56L71.8,18.8C68.8,12.2,60.9,9.3,54.2,12.4z M84.7,58.1L73,63.5c-3.5,1.6-5,5.8-3.4,9.2L75,84.5L51.2,95.6
		c-4.2,1.9-9.2,0.1-11.1-4.1L18,43.9c-1.9-4.2-0.1-9.2,4.1-11.1l34.3-15.9c4.2-1.9,9.2-0.1,11.1,4.1L84.7,58.1L84.7,58.1z"/>
	
		<rect x="28.9" y="44.9" transform="matrix(0.9067 -0.4217 0.4217 0.9067 -16.9788 17.5805)" class="st1" width="4.7" height="4.5"/>
	
		<rect x="33.6" y="54.9" transform="matrix(0.9067 -0.4217 0.4217 0.9067 -20.7457 20.4939)" class="st1" width="4.7" height="4.5"/>
	
		<rect x="38.2" y="64.9" transform="matrix(0.9067 -0.4217 0.4217 0.9067 -24.5395 23.3726)" class="st1" width="4.7" height="4.5"/>
	
		<rect x="42.9" y="74.8" transform="matrix(0.9067 -0.4217 0.4217 0.9067 -28.2724 26.2597)" class="st1" width="4.7" height="4.5"/>
	
		<rect x="36.8" y="35.8" transform="matrix(0.9067 -0.4217 0.4217 0.9067 -11.3182 24.9412)" class="st1" width="27.9" height="4.5"/>
	
		<rect x="41.4" y="45.8" transform="matrix(0.9067 -0.4217 0.4217 0.9067 -15.1114 27.8203)" class="st1" width="27.9" height="4.5"/>
	
		<rect x="46.1" y="55.8" transform="matrix(0.9067 -0.4217 0.4217 0.9067 -18.8789 30.7333)" class="st1" width="27.9" height="4.5"/>
	
		<rect x="51.5" y="69.3" transform="matrix(0.9067 -0.4217 0.4217 0.9067 -24.8259 30.8188)" class="st1" width="11.5" height="4.5"/>
</g>
<g>
	<g>
		<path class="st0" d="M81.7,102.4c0.7-8.1,4.1-14.7,9.6-19.2l19.5,18.6l19.5-18.6c5.5,4.5,8.9,11.1,9.6,19.2
			C139.9,102.4,81.7,102.4,81.7,102.4z"/>
		<path class="st0" d="M130.3,88c2.7,2.9,4.5,6.6,5.5,10.9h-16.9L130.3,88 M91.3,88l11.4,10.9H85.8C86.8,94.6,88.6,90.9,91.3,88
			 M129.9,78.6L110.8,97L91.7,78.6c-8.9,5.7-13.6,15.7-13.6,27.2h32.7h32.7C143.5,94.4,138.9,84.4,129.9,78.6L129.9,78.6z"/>
	</g>
	<path class="st2" d="M134,63.4v-6.7c0-13.1-10.3-23.6-23-23.6S88,43.7,88,56.7v6.7c0,13,10.3,23.6,23,23.6S134,76.4,134,63.4z
		 M111,82.7c-10.4,0-18.8-8.7-18.8-19.3v-6.7c0-0.7,0-1.5,0.1-2.2c11-0.9,18.6-3.1,23.7-5.5c3.2,2.1,7.6,4.3,13.8,6.2
		c0,0.5,0.1,1,0.1,1.5v6.7"/>
	<g>
		<path class="st0" d="M74.5,107.5c0.1-15,5.6-27.7,15-34.8l21.4,20l22.5-20c9.5,7.2,14.9,19.8,15,34.9L74.5,107.5L74.5,107.5z"/>
		<path class="st0" d="M133.5,73.3c9,7,14.3,19.2,14.5,33.7h-36.5H75c0.2-14.5,5.5-26.6,14.5-33.7l20.8,19.4l0.7,0.6l0.7-0.6
			L133.5,73.3 M133.4,72L111,92L89.6,72C79.3,79.6,74,92.8,74,108h37.5H149C149,92.8,143.7,79.6,133.4,72L133.4,72z"/>
	</g>
	<path class="st1" d="M129.9,78.6L110.8,97L91.7,78.6c-8.9,5.7-13.6,15.7-13.6,27.2h32.7h32.7C143.5,94.4,138.9,84.4,129.9,78.6z"/>
	<path class="st3" d="M86.5,68.9c2.2,0,4.1-1.8,4.1-4.1V54.7c0-1.6-0.9-2.9-2.2-3.6c1.1-3.8,3.1-7.2,5.9-10c4.2-4.2,10-6.8,16.4-6.8
		s12.2,2.6,16.4,6.8c2.8,2.8,4.8,6.3,5.9,10.2c-1.2,0.7-1.9,2-1.9,3.5V65c0,1.6,0.9,3,2.3,3.7c-0.5,2-1.3,4-2.2,5.7s-2,3.1-3,4.2
		c-0.8-0.6-1.8-1-2.9-1c-2.7,0-4.8,2.2-4.8,4.8c0,2.7,2.2,4.8,4.8,4.8c2.7,0,4.8-2.2,4.8-4.8c0-0.6-0.1-1.2-0.3-1.7l0.2-0.2
		c2.7-2.7,4.9-6.9,6.1-11.5c1.8-0.4,3.2-2,3.2-4V54.7c0-1.8-1.2-3.3-2.8-3.9c-3-11.4-13.3-19.9-25.7-19.9s-22.8,8.5-25.7,20
		c-1.4,0.6-2.5,2.1-2.5,3.7v10.2C82.4,67.1,84.3,68.9,86.5,68.9z"/>
	<path class="st1" d="M86.5,68.9c2.2,0,4.1-1.8,4.1-4.1V54.7c0-1.6-0.9-2.9-2.2-3.6c1.1-3.8,3.1-7.2,5.9-10c4.2-4.2,10-6.8,16.4-6.8
		s12.2,2.6,16.4,6.8c2.8,2.8,4.8,6.3,5.9,10.2c-1.2,0.7-1.9,2-1.9,3.5V65c0,1.6,0.9,3,2.3,3.7c-0.5,2-1.3,4-2.2,5.7s-2,3.1-3,4.2
		c-0.8-0.6-1.8-1-2.9-1c-2.7,0-4.8,2.2-4.8,4.8c0,2.7,2.2,4.8,4.8,4.8c2.7,0,4.8-2.2,4.8-4.8c0-0.6-0.1-1.2-0.3-1.7l0.2-0.2
		c2.7-2.7,4.9-6.9,6.1-11.5c1.8-0.4,3.2-2,3.2-4V54.7c0-1.8-1.2-3.3-2.8-3.9c-3-11.4-13.3-19.9-25.7-19.9s-22.8,8.5-25.7,20
		c-1.4,0.6-2.5,2.1-2.5,3.7v10.2C82.4,67.1,84.3,68.9,86.5,68.9z"/>
	<g>
		<polygon class="st0" points="106.6,89.2 110.8,92.7 115,89.2 115,79.3 106.6,79.3 		"/>
		<polygon class="st0" points="115,79.3 106.6,79.3 106.6,89.2 110.8,92.7 115,89.2 		"/>
	</g>
	<g>
		<polygon points="106.1,89.5 106.1,77.9 115.7,77.9 115.7,89.5 110.9,93.6 		"/>
		<path class="st0" d="M115.2,78.4v10.9l-4.3,3.7l-4.3-3.7V78.4H115.2 M116.2,77.4h-10.6v12.4l5.3,4.5l5.3-4.5L116.2,77.4
			L116.2,77.4z"/>
	</g>
	<polygon class="st1" points="106.6,89.2 110.8,92.7 115,89.2 115,79.3 106.6,79.3 	"/>
	<path class="st1" d="M129.1,62.5v-5.3c0-10.2-8.3-18.5-18.5-18.5S92.1,47,92.1,57.2v5.3c0,10.2,8.3,18.5,18.5,18.5
		S129.1,72.7,129.1,62.5z M110.6,77.6c-8.3,0-15.1-6.8-15.1-15.1v-5.3c0-0.6,0-1.2,0.1-1.7c8.8-0.7,15-2.4,19.1-4.3
		c2.6,1.6,6.1,3.4,11.1,4.9c0,0.4,0.1,0.8,0.1,1.1v5.3C125.8,70.8,119,77.6,110.6,77.6z"/>
	<path class="st1" d="M103.4,58.3c-1.3,0-2.3,1-2.3,2.3s1,2.3,2.3,2.3s2.3-1,2.3-2.3C105.8,59.4,104.7,58.3,103.4,58.3z"/>
	<path class="st1" d="M117.8,58.3c-1.3,0-2.3,1-2.3,2.3s1,2.3,2.3,2.3s2.3-1,2.3-2.3C120.1,59.4,119.1,58.3,117.8,58.3z"/>
</g>
<path class="st4" d="M116.2,70.2c0,0-2.2,3-5.6,3s-5.6-3-5.6-3H116.2z"/>
<g>
	<g>
		<path class="st5" d="M37.8,84.6l7.6,6.4c1.3-1,2.4-2,3.3-2.6L41,81.9l-0.9-3.5l-6.8-3.5l-1.9,1.6L29.5,78l4.1,5.7L37.8,84.6z"/>
		<path class="st5" d="M60.8,94.9l11.2,9.4c2.1,1.7,2.1,4.5,0,6.3c-2.1,1.7-5.4,1.7-7.5,0l-11.2-9.4L60.8,94.9z"/>
		<path class="st5" d="M69,89.4c3.9-2.9,4.5-6.3,3.6-9.1c0-0.2-0.1-0.4-0.3-0.6l-0.8-0.5c-0.1-0.1-0.3-0.2-0.5-0.1
			c-0.2,0-0.3,0.1-0.5,0.2L66,84.2c-0.1,0.1-0.3,0.2-0.5,0.2L64,84.5c-0.1,0-0.3,0-0.4-0.1l-3.1-2.2c-0.1-0.1-0.2-0.2-0.2-0.3
			l-0.2-1.2c0-0.1,0-0.3,0.1-0.4l4.2-4.8c0.2-0.2,0.2-0.5-0.1-0.7l-1-0.7c-0.2-0.2-0.4-0.1-0.7-0.1c-2.9,0.5-7.8,2.8-9.1,6.1
			C52.4,83,52.8,85,52.8,85c0,1.6-0.6,3.2-1.4,3.8l-21.8,17.5l-0.1,0.1c-1.8,1.5-1.8,4-0.1,5.4c1.7,1.5,4.7,1.5,6.5,0
			c0.1-0.1,0.2-0.1,0.2-0.2l21-19C59.7,90.5,64.8,92.6,69,89.4z"/>
	</g>
	<g>
		<path class="st1" d="M36.7,83.6l7.6,6.4c1.3-1,2.4-2,3.3-2.6L40,81l-1-3.5L32.2,74l-1.9,1.6l-1.9,1.6l4.1,5.7L36.7,83.6z"/>
		<path class="st1" d="M59.7,94l11.2,9.4c2.1,1.7,2.1,4.5,0,6.3c-2.1,1.7-5.4,1.7-7.5,0l-11.2-9.4L59.7,94z"/>
		<path class="st1" d="M68.9,88.5c3.9-2.9,4.5-6.3,3.6-9.1c0-0.2-0.1-0.4-0.3-0.6l-0.8-0.5c-0.1-0.1-0.3-0.2-0.5-0.1
			c-0.2,0-0.3,0.1-0.5,0.2l-4.5,4.9c-0.1,0.1-0.3,0.2-0.5,0.2l-1.6,0.1c-0.1,0-0.3,0-0.4-0.1l-3.1-2.2c-0.1-0.1-0.2-0.2-0.2-0.3
			L60,79.6c0-0.1,0-0.3,0.1-0.4l4.2-4.8c0.2-0.2,0.2-0.5-0.1-0.7l-1-0.7c-0.2,0-0.5,0-0.8,0c-2.9,0.5-7.8,2.8-9.1,6.1
			c-1,2.9-0.6,4.9-0.6,4.9c0,1.6-0.6,3.2-1.4,3.8l-21.8,17.5l-0.1,0.1c-1.8,1.5-1.8,4-0.1,5.4c1.7,1.5,4.7,1.5,6.5,0
			c0.1-0.1,0.2-0.1,0.2-0.2l21-19C59.6,89.6,64.7,91.7,68.9,88.5z"/>
	</g>
</g>
</svg>
