<?xml version="1.0" encoding="utf-8"?>
<!-- Generator: Adobe Illustrator 22.1.0, SVG Export Plug-In . SVG Version: 6.00 Build 0)  -->
<svg version="1.1" id="レイヤー_1" xmlns="http://www.w3.org/2000/svg" xmlns:xlink="http://www.w3.org/1999/xlink" x="0px"
	 y="0px" viewBox="0 0 138.8 111.5" style="enable-background:new 0 0 138.8 111.5;" xml:space="preserve">
<style type="text/css">
	.st0{fill:#FFFFFF;}
	.st1{fill:#666464;}
	.st2{fill:#FFFFFF;stroke:#FFFFFF;stroke-width:4.1308;stroke-miterlimit:10;}
	.st3{stroke:#FFFFFF;stroke-width:5;stroke-miterlimit:10;}
</style>
<g id="レイヤー_3">
</g>
<g id="_x32_">
	<g id="レイヤー_2_1_">
		<path class="st0" d="M81.4,77.7c0,2.8-2.7,5-6.1,5H47.4c-3.4,0-6.1-2.2-6.1-5V63.2c0-2.8,2.7-5,6.1-5h27.9c3.4,0,6.1,2.2,6.1,5
			V77.7z"/>
		<path class="st0" d="M97.5,63.8c0,3.7-2.7,6.6-6,6.6H47.3c-3.3,0-6-3-6-6.6V19.1c0-3.7,2.7-6.6,6-6.6h44.2c3.3,0,6,3,6,6.6V63.8z"
			/>
	</g>
	<g>
		<path class="st1" d="M88.2,7.7H50.3c-7.3,0-13.3,5.9-13.3,13.3v52.5c0,7.3,6,13.3,13.3,13.3h26.3h2l1.4-1.4L100,65.4l1.4-1.4v-2
			v-41C101.4,13.6,95.5,7.7,88.2,7.7z M96.5,61.9H83.6c-3.8,0-7,3.1-7,7v12.9H50.3c-4.6,0-8.4-3.7-8.4-8.4V20.9
			c0-4.6,3.7-8.4,8.4-8.4h37.8c4.6,0,8.4,3.7,8.4,8.4L96.5,61.9L96.5,61.9z"/>
		<rect x="50.4" y="27.3" class="st1" width="4.7" height="4.5"/>
		<rect x="50.4" y="38.3" class="st1" width="4.7" height="4.5"/>
		<rect x="50.4" y="49.3" class="st1" width="4.7" height="4.5"/>
		<rect x="50.4" y="60.3" class="st1" width="4.7" height="4.5"/>
		<rect x="60.2" y="27.3" class="st1" width="27.9" height="4.5"/>
		<rect x="60.2" y="38.3" class="st1" width="27.9" height="4.5"/>
		<rect x="60.2" y="49.3" class="st1" width="27.9" height="4.5"/>
		<rect x="60.2" y="60.3" class="st1" width="11.5" height="4.5"/>
	</g>
	<g>
		<g>
			<path class="st2" d="M6.9,95.1l7.5,10c0.7,0.9,1.9,1.1,2.8,0.4l42.2-30c0.3-0.2,0.5-0.5,0.6-0.7l6.6-14c0.7-1.4-0.5-3.1-2.1-2.8
				l-15.8,2.4l0,0l-41.4,32C6.4,93,6.2,94.3,6.9,95.1z M59.6,62.2l1.5,2l-3.8,8.1l-4.6-3.4l-1.9-5.4L59.6,62.2z M12.2,97.4l36.2-27
				l1.7,2.3L13.8,99.4L12.2,97.4C12.2,97.4,12.2,97.4,12.2,97.4z"/>
		</g>
		<g>
			<path class="st1" d="M6.9,95.1l7.5,10c0.7,0.9,1.9,1.1,2.8,0.4l42.2-30c0.3-0.2,0.5-0.5,0.6-0.7l6.6-14c0.7-1.4-0.5-3.1-2.1-2.8
				l-15.8,2.4l0,0l-41.4,32C6.4,93,6.2,94.3,6.9,95.1z M59.6,62.2l1.5,2l-3.8,8.1l-4.6-3.4l-1.9-5.4L59.6,62.2z M12.2,97.4l36.2-27
				l1.7,2.3L13.8,99.4L12.2,97.4C12.2,97.4,12.2,97.4,12.2,97.4z"/>
		</g>
	</g>
	<g>
		<path class="st3" d="M93.3,70.2l6.1,6.1c1-1,2-1.9,2.6-2.5l-6.2-6.2l-0.8-3.3l-5.5-3.3l-1.5,1.5l-1.5,1.5l3.3,5.5L93.3,70.2z"/>
		<path class="st3" d="M111.9,80.2l9,9c1.7,1.7,1.7,4.4,0,6c-1.7,1.7-4.4,1.7-6,0l-9-9L111.9,80.2z"/>
		<path class="st3" d="M119.3,74.8c3.1-2.8,3.6-6,2.9-8.7c0-0.2-0.1-0.4-0.3-0.5l-0.6-0.5c-0.1-0.1-0.3-0.2-0.4-0.1
			c-0.1,0-0.3,0.1-0.4,0.2l-3.6,4.7c-0.1,0.1-0.3,0.2-0.4,0.2l-1.3,0.1c-0.1,0-0.2,0-0.3-0.1l-2.5-2.1c-0.1-0.1-0.2-0.2-0.2-0.3
			l-0.2-1.2c0-0.1,0-0.3,0.1-0.4l3.4-4.6c0.2-0.2,0.1-0.5-0.1-0.7l-0.8-0.6c-0.2-0.1-0.3-0.1-0.6-0.1c-2.3,0.5-6.3,2.7-7.3,5.8
			c-0.9,2.7-0.6,4.7-0.6,4.7c0,1.5-0.5,3-1.1,3.7L87.5,91c0,0-0.1,0.1-0.1,0.1c-1.5,1.5-1.4,3.8,0,5.2c1.4,1.4,3.8,1.4,5.2,0
			c0.1-0.1,0.1-0.1,0.2-0.2l16.9-18.3C111.8,75.9,115.9,77.9,119.3,74.8z"/>
	</g>
	<g>
		<path class="st1" d="M92.5,69.3l6.1,6.1c1-1,2-1.9,2.6-2.5L95,66.7l-0.8-3.3L88.8,60l-1.5,1.5l-1.5,1.5l3.3,5.5L92.5,69.3z"/>
		<path class="st1" d="M111,79.3l9,9c1.7,1.7,1.7,4.4,0,6c-1.7,1.7-4.4,1.7-6,0l-9-9L111,79.3z"/>
		<path class="st1" d="M118.4,74c3.1-2.8,3.6-6,2.9-8.7c0-0.2-0.1-0.4-0.3-0.5l-0.6-0.5c-0.1-0.1-0.3-0.2-0.4-0.1
			c-0.1,0-0.3,0.1-0.4,0.2l-3.6,4.7c-0.1,0.1-0.3,0.2-0.4,0.2l-1.3,0.1c-0.1,0-0.2,0-0.3-0.1l-2.5-2.1c-0.1-0.1-0.2-0.2-0.2-0.3
			l-0.2-1.2c0-0.1,0-0.3,0.1-0.4l3.4-4.6c0.2-0.2,0.1-0.5-0.1-0.7l-0.8-0.6c-0.2-0.1-0.3-0.1-0.6-0.1c-2.3,0.5-6.3,2.7-7.3,5.8
			c-0.9,2.7-0.6,4.7-0.6,4.7c0,1.5-0.5,3-1.1,3.7L86.6,90.1c0,0-0.1,0.1-0.1,0.1c-1.5,1.5-1.4,3.8,0,5.2c1.4,1.4,3.8,1.4,5.2,0
			c0.1-0.1,0.1-0.1,0.2-0.2l16.9-18.3C110.9,75.1,115,77,118.4,74z"/>
	</g>
</g>
</svg>
