<svg id="レイヤー_1" data-name="レイヤー 1" xmlns="http://www.w3.org/2000/svg" viewBox="0 0 408 296"><defs><style>.cls-1{fill:none;stroke:#61aa1a;stroke-miterlimit:10;stroke-width:2px;}</style></defs><title>dum_pcline</title><polygon class="cls-1" points="231 268 231 268 24 268 24 268 24 141 24 141 231 141 231 141 231 268"/><polygon class="cls-1" points="240 295 226 295 10.75 295 1 283.5 1 274 1 274 253 274 253 274 253 282.75 240 295"/><polyline class="cls-1" points="93.75 227.75 124 197.28 153.34 227.75"/><polyline class="cls-1" points="101 235 101 258 145 258 145 235"/><polygon class="cls-1" points="132 245 132 245 115 245 115 245 115 231 115 231 132 231 132 231 132 245"/><polygon class="cls-1" points="245 268 245 268 11 268 11 268 11 130 11 130 245 130 245 130 245 268"/><polyline class="cls-1" points="293.75 165.59 312.15 147.06 330 165.59"/><polyline class="cls-1" points="298 170 298 185 324 185 324 170"/><polygon class="cls-1" points="317 177 317 177 306 177 306 177 306 168 306 168 317 168 317 168 317 177"/><rect class="cls-1" x="286" y="11" width="109" height="178" rx="5" ry="5"/><rect class="cls-1" x="274" y="1" width="133" height="211" rx="5" ry="5"/><rect class="cls-1" x="177" y="150" width="38" height="78"/><polygon class="cls-1" points="189.62 170 182.87 170 182.87 170 189.62 170 189.62 170"/><line class="cls-1" x1="189" y1="170" x2="189" y2="161"/><polygon class="cls-1" points="210.35 170 203.6 170 203.6 170 210.35 170 210.35 170"/><line class="cls-1" x1="210" y1="168" x2="210" y2="160"/><polygon class="cls-1" points="200.57 170 193.81 170 193.81 170 200.57 170 200.57 170"/><line class="cls-1" x1="200" y1="168" x2="200" y2="160"/><polygon class="cls-1" points="200.22 182 193.46 182 193.46 182 200.22 182 200.22 182"/><line class="cls-1" x1="200" y1="182" x2="200" y2="174"/><polygon class="cls-1" points="210 182 203.25 182 203.25 182 210 182 210 182"/><line class="cls-1" x1="210" y1="182" x2="210" y2="173"/><polygon class="cls-1" points="201.27 198 194.51 198 194.51 198 201.27 198 201.27 198"/><line class="cls-1" x1="201" y1="197" x2="201" y2="190"/><polygon class="cls-1" points="200.92 211 194.16 211 194.16 211 200.92 211 200.92 211"/><line class="cls-1" x1="201" y1="211" x2="201" y2="202"/><polygon class="cls-1" points="210.35 198 203.6 198 203.6 198 210.35 198 210.35 198"/><line class="cls-1" x1="210" y1="197" x2="210" y2="190"/><polygon class="cls-1" points="211.4 211 204.65 211 204.65 211 211.4 211 211.4 211"/><line class="cls-1" x1="211" y1="211" x2="211" y2="202"/><polygon class="cls-1" points="189.62 184 182.87 184 182.87 184 189.62 184 189.62 184"/><line class="cls-1" x1="189" y1="184" x2="189" y2="175"/><polygon class="cls-1" points="189.62 198 182.87 198 182.87 198 189.62 198 189.62 198"/><line class="cls-1" x1="189" y1="198" x2="189" y2="190"/><polygon class="cls-1" points="189.62 211 182.87 211 182.87 211 189.62 211 189.62 211"/><line class="cls-1" x1="189" y1="211" x2="189" y2="202"/><polyline class="cls-1" points="191 225 191 215 211 215 211 225"/><polyline class="cls-1" points="219.71 152.35 226 161.05 226 225"/><polyline class="cls-1" points="49 236 49 257 60 257 60 236"/><polyline class="cls-1" points="39.08 235.51 55.49 219.1 72.48 236.09"/><polyline class="cls-1" points="42.03 195.95 54.29 183.69 67.87 197.27"/><polyline class="cls-1" points="40.99 215.87 56.15 200.71 69.54 214.11"/><polyline class="cls-1" points="355 163 355 184 366 184 366 163"/><polyline class="cls-1" points="345.08 162.51 361.49 146.1 378.48 163.09"/><polyline class="cls-1" points="348.03 122.95 360.29 110.69 373.87 124.27"/><polyline class="cls-1" points="346.99 142.87 362.15 127.71 375.54 141.11"/><polyline class="cls-1" points="295.67 118.33 331 75.67 346.95 97 360.33 84.33 375 51.67 386.33 79"/></svg>