<?xml version="1.0" encoding="utf-8"?>
<!-- Generator: Adobe Illustrator 15.0.2, SVG Export Plug-In  -->
<!DOCTYPE svg PUBLIC "-//W3C//DTD SVG 1.1//EN" "http://www.w3.org/Graphics/SVG/1.1/DTD/svg11.dtd" [
	<!ENTITY ns_flows "http://ns.adobe.com/Flows/1.0/">
]>
<svg version="1.1"
	 xmlns="http://www.w3.org/2000/svg" xmlns:xlink="http://www.w3.org/1999/xlink" xmlns:a="http://ns.adobe.com/AdobeSVGViewerExtensions/3.0/"
	 x="0px" y="0px" width="185px" height="241px" viewBox="-11.342 -14.396 185 241" enable-background="new -11.342 -14.396 185 241"
	 xml:space="preserve">
<defs>
</defs>
<path fill="#6FB92C" d="M138.811,43.827c3.094-4.503,4.916-9.949,4.916-15.832C143.727,12.536,131.187,0,115.726,0
	c-14.312,0-26.09,10.743-27.772,24.602c-2.285-0.158-4.59-0.257-6.92-0.257c-3.781,0-7.486,0.227-11.128,0.626
	C68.396,10.932,56.519,0,42.077,0C26.611,0,14.079,12.536,14.079,27.995c0,6.876,2.483,13.162,6.594,18.037
	C7.824,57.56,0,72.777,0,89.472c0,35.971,36.278,59.65,81.033,59.65c44.749,0,81.027-23.68,81.027-59.65
	C162.061,71.691,153.188,55.579,138.811,43.827z"/>
<path fill="#6FB92C" d="M121.723,185.844c14.466-11.902,12.06-22.373,8.203-25.704c-3.863-3.332-11.576-0.954-11.576-0.954
	s-3.376-20.468-4.34-22.367l-31.828-0.472v-0.006l-0.238,0.003l-0.241-0.003v0.006l-31.826,0.472
	c-0.966,1.899-4.339,22.367-4.339,22.367s-7.717-2.378-11.573,0.954c-3.856,3.331-6.27,13.802,8.196,25.704
	c0,0-12.532,6.187-8.676,10.47c3.856,4.286,34.234-5.709,34.234-5.709h13.983h0.479h13.985c0,0,30.379,9.995,34.236,5.709
	C134.263,192.03,121.723,185.844,121.723,185.844z"/>
<path fill="#FFFFFF" d="M109.074,169.181c0,10.52-11.935,19.044-26.654,19.044s-26.658-8.524-26.658-19.044
	c0-10.515,11.938-19.035,26.658-19.035S109.074,158.666,109.074,169.181z"/>
<path fill="#6FB92C" d="M115.656,149.37c-2.894,30.939-14.463,46.171-14.463,46.171l-0.636,0.963l0.01,0.006l3.6,11.898
	c1.539-0.057,3.01,0.848,3.601,2.354c0.748,1.915-0.197,4.071-2.109,4.813c-1.912,0.746-4.068-0.196-4.811-2.104
	c-0.591-1.516-0.122-3.172,1.047-4.173l-3.755-7.762l-1.966,8.396c1.359,0.716,2.181,2.237,1.936,3.842
	c-0.308,2.024-2.201,3.421-4.232,3.11c-2.025-0.31-3.422-2.204-3.111-4.235c0.244-1.599,1.482-2.807,2.994-3.084l0.627-8.599
	l-5.896,6.288c0.816,1.3,0.767,3.03-0.244,4.295c-1.283,1.598-3.621,1.86-5.22,0.578c-1.604-1.283-1.861-3.618-0.579-5.223
	c1.014-1.265,2.684-1.688,4.131-1.179l4.841-7.131l-8.25,2.499c0.057,1.529-0.845,3.001-2.356,3.592
	c-1.908,0.749-4.064-0.197-4.808-2.106c-0.752-1.908,0.197-4.065,2.106-4.811c1.515-0.591,3.17-0.12,4.172,1.05l11.015-5.252
	l0.179-0.406l8.193-44.266"/>
<path fill="#6FB92C" d="M48.057,148.839c2.893,30.942,14.463,46.168,14.463,46.168l0.637,0.964l-0.013,0.01l-3.6,11.895
	c-1.537-0.058-3.007,0.847-3.595,2.358c-0.752,1.91,0.194,4.066,2.106,4.812c1.911,0.743,4.067-0.197,4.813-2.108
	c0.588-1.513,0.119-3.172-1.05-4.173l3.755-7.755l1.966,8.39c-1.36,0.719-2.181,2.237-1.937,3.842
	c0.308,2.024,2.201,3.421,4.229,3.11c2.029-0.31,3.422-2.203,3.114-4.229c-0.244-1.605-1.482-2.81-2.991-3.091l-0.626-8.596
	l5.893,6.285c-0.814,1.3-0.769,3.03,0.245,4.295c1.28,1.602,3.621,1.861,5.22,0.578c1.604-1.279,1.861-3.618,0.584-5.22
	c-1.02-1.268-2.69-1.69-4.143-1.182l-4.838-7.128l8.25,2.496c-0.057,1.534,0.848,3.007,2.36,3.598
	c1.908,0.746,4.064-0.2,4.808-2.112c0.752-1.908-0.194-4.062-2.109-4.808c-1.509-0.594-3.167-0.122-4.17,1.047l-11.014-5.252
	l-0.181-0.406L62.04,148.36"/>
<path fill="#FFFFFF" d="M131.315,27.876c0,8.999-7.293,16.298-16.298,16.298c-8.998,0-16.293-7.299-16.293-16.298
	s7.295-16.298,16.293-16.298C124.022,11.578,131.315,18.877,131.315,27.876z"/>
<circle fill="#FFFFFF" cx="42.596" cy="27.876" r="16.295"/>
<path fill="#6FB92C" d="M125.624,27.876c0,5.853-4.748,10.601-10.606,10.601c-5.852,0-10.603-4.748-10.603-10.601
	c0-5.857,4.751-10.606,10.603-10.606C120.876,17.27,125.624,22.019,125.624,27.876z"/>
<path fill="#6FB92C" d="M53.202,27.876c0,5.853-4.749,10.601-10.606,10.601s-10.604-4.748-10.604-10.601
	c0-5.857,4.746-10.606,10.604-10.606S53.202,22.019,53.202,27.876z"/>
<path fill="#FFFFFF" d="M26.409,58.556c0,0,36.212,24.828,106.049,0C132.458,58.556,80.214,162.538,26.409,58.556z"/>
<circle fill="#231815" cx="118.125" cy="24.771" r="2.328"/>
<circle fill="#FFFFFF" cx="116.832" cy="24.771" r="3.621"/>
<path fill="#FFFFFF" d="M49.065,25.29c0,1.998-1.626,3.621-3.621,3.621c-2.002,0-3.624-1.623-3.624-3.621
	c0-2.002,1.622-3.624,3.624-3.624C47.439,21.666,49.065,23.288,49.065,25.29z"/>
<path fill="#6FB92C" d="M127.85,187.326l12.071-2.329c0.106-1.607,1.211-3.048,2.851-3.502c2.076-0.568,4.225,0.647,4.8,2.724
	c0.573,2.076-0.647,4.227-2.724,4.8c-1.644,0.453-3.325-0.221-4.244-1.549l-8.513,3.088l8.558,2.958
	c0.895-1.342,2.571-2.037,4.221-1.604c2.081,0.54,3.335,2.67,2.791,4.754c-0.539,2.086-2.672,3.335-4.754,2.796
	c-1.65-0.43-2.773-1.853-2.905-3.464l-8.913-1.58l5.931,6.836c1.446-0.71,3.244-0.478,4.455,0.723
	c1.537,1.509,1.558,3.981,0.042,5.518c-1.512,1.535-3.979,1.551-5.512,0.039c-1.217-1.197-1.479-2.993-0.787-4.447l-6.926-5.832
	l1.716,8.889c1.606,0.107,3.048,1.21,3.501,2.854c0.573,2.075-0.647,4.224-2.721,4.796c-2.081,0.576-4.229-0.647-4.799-2.724
	c-0.453-1.641,0.215-3.325,1.545-4.241l-3.084-8.512l-2.962,8.554c1.343,0.897,2.037,2.574,1.607,4.224
	c-0.545,2.082-2.669,3.335-4.757,2.789c-2.088-0.54-3.335-2.669-2.795-4.752c0.434-1.652,1.854-2.776,3.466-2.904l1.996-11.258
	C121.005,194.968,116.092,184.786,127.85,187.326z"/>
<path fill="#6FB92C" d="M37.707,186.582l-12.073-2.33c-0.108-1.611-1.205-3.046-2.852-3.502c-2.076-0.572-4.224,0.646-4.8,2.723
	c-0.569,2.076,0.653,4.229,2.724,4.8c1.646,0.453,3.331-0.221,4.247-1.548l8.513,3.087l-8.555,2.961
	c-0.9-1.344-2.577-2.04-4.223-1.613c-2.086,0.547-3.335,2.676-2.796,4.764c0.546,2.082,2.674,3.334,4.758,2.792
	c1.652-0.43,2.773-1.853,2.902-3.463l8.918-1.584l-5.932,6.846c-1.447-0.716-3.245-0.481-4.46,0.716
	c-1.535,1.509-1.554,3.981-0.042,5.518c1.512,1.532,3.981,1.551,5.519,0.039c1.214-1.197,1.474-2.991,0.782-4.447l6.928-5.832
	l-1.715,8.893c-1.61,0.106-3.051,1.208-3.502,2.849c-0.572,2.081,0.645,4.229,2.724,4.798c2.073,0.576,4.223-0.646,4.799-2.723
	c0.45-1.641-0.221-3.325-1.548-4.241l3.087-8.513l2.956,8.557c-1.342,0.898-2.034,2.572-1.605,4.222
	c0.544,2.084,2.674,3.334,4.755,2.794c2.088-0.545,3.341-2.672,2.795-4.757c-0.427-1.652-1.853-2.774-3.46-2.905l-2.001-11.26
	C44.55,194.22,49.462,184.04,37.707,186.582z"/>
<path fill="#6FB92C" d="M90.19,167.669c0,1.792,2.103,2.454,3.233,1.204c0.854-0.934,1.127-2.604,1.324-4.396
	c0.095-0.915,1.497-0.698,1.378,0.215c-0.229,2.004-0.504,3.893-1.67,5.101c-1.99,2.159-5.647,0.993-5.647-2.123v-4.771h-3.31
	c-0.934,0-0.934-1.359,0-1.359h3.388c0.018-0.486,0-1.205,0-2.025c0,0-0.915,0.021-1.479,0c-1.947,0-2.806-0.993-2.511-2.378
	c0.253-1.279,1.362-2.219,2.473-2.487c1.461-0.411,2.859,0.525,2.859,2.159v1.402h2.646c3.251,0,3.232,4.688-0.019,4.688H90.19
	V167.669z M88.929,156.825c0-0.68-0.587-1.145-1.268-0.969c-0.543,0.134-1.268,0.717-1.441,1.435
	c-0.099,0.472,0.138,0.919,1.188,0.919c0.564-0.019,1.071,0,1.521,0V156.825z M90.229,159.514v2.042h2.646
	c1.423,0,1.423-2.042,0-2.042H90.229z"/>
</svg>
