<svg xmlns="http://www.w3.org/2000/svg" viewBox="0 0 919.07 521.98"><defs><style>.cls-1,.cls-2,.cls-5{fill:#fff;}.cls-1,.cls-5{stroke:#61aa1a;stroke-width:2px;}.cls-1,.cls-4{stroke-miterlimit:10;}.cls-3{fill:#61aa1a;}.cls-4{fill:none;stroke:#000;stroke-width:3px;}.cls-4,.cls-5{stroke-linecap:round;}.cls-5{stroke-linejoin:round;}</style></defs><title>girl_1</title><g id="レイヤー_2" data-name="レイヤー 2"><g id="hero"><path class="cls-1" d="M814.59,283c-1.93-2.87-9.34-2-14.49.54-4.35,2.12-5.24,4.49-10.73,9.66-5.33,5-7,5.17-13.42,10.2-10.2,8-9.77,10.73-16.1,15.56-13.67,10.43-30.78,9.35-34.34,9.12a54,54,0,0,1-15.77-3.42c4.69-2.92,7.44-5.22,7.92-7.31,1.07-4.58-9.41-5.19-13.2-5.4-5.05-.3-10.62-.61-15.89.84a58.35,58.35,0,0,0-8.14-5.64c-4-2.3-17.39-10-33.81-10.19-12.84-.13-22,4.41-37.57,12.34-12.2,6.22-19.09,11.36-30.59,19.32-5,3.44-9.34,6.35-13.19,8.83-6.11,22-1.56,46.26,10.61,65.53,10.66-13.41,24.83-28.71,39.19-37a61,61,0,0,1,20-7c7.58-.05,30.33,7.74,30.33,7.74l42.93,15s7.46,2.9,12.88,1.07c3.79-1.27,4.56-4.72,8.59-7,12.27-6.87,17.11-10.68,27.27-15.87,8.46-4.33,5.1-3.05,10.3-6.14,9.65-5.72,9.71-12.05,20.93-28.44,5.68-8.3,9.73-12.61,20.39-28.44C813.49,289.8,816.22,285.39,814.59,283Z"/><path class="cls-2" d="M421.79,443.77c17.07-24.24,24.78-38.33,56.78-62.33,39.1-29.33,51-41,77.6-45.44,2.13-.36,4.51-.35,6.29.88,3.14,2.18,2.57,6.84,2.68,10.66.43,14.95,15.29,24.51,26.87,34a112.63,112.63,0,0,1,28.86,35.68c-25.59,7.59-45.57,31.37-48.63,57.89"/><path class="cls-3" d="M422.76,444.34c9.7-13.81,18.92-27.95,30.82-40,15.47-15.71,34-28.42,51.57-41.61,11.49-8.61,23.34-17.41,37.07-22.11a86.07,86.07,0,0,1,9-2.52,35.71,35.71,0,0,1,6.2-1.12c5.58-.18,6.39,3.69,6.52,8a31.28,31.28,0,0,0,8.65,21.44c7.17,7.91,16.4,13.58,24.17,20.84a114.11,114.11,0,0,1,23.09,30.57l.67-1.66a71.78,71.78,0,0,0-49.45,59c-.18,1.43,2.07,1.41,2.25,0,3.33-26.27,22.52-49,47.8-56.81a1.14,1.14,0,0,0,.67-1.65,116.28,116.28,0,0,0-19.9-27.56c-7.48-7.64-16.43-13.48-24.21-20.77-3.75-3.52-7.31-7.49-9.45-12.22-2.33-5.14-1.18-10.18-2.36-15.4-1.83-8-10.28-5.92-16.25-4.53-14,3.25-26.12,10.46-37.69,18.77-18,12.9-36.41,26.08-52.81,40.94-15.3,13.86-26.57,30.58-38.36,47.35-.83,1.19,1.12,2.32,1.95,1.14Z"/><line class="cls-4" x1="610.57" y1="275.44" x2="917.57" y2="275.44"/><path class="cls-5" d="M299.59,364.6c-2.09-27.18.44-59.57,13.93-59,32,1.44,57.12-2,65.35-9.86,13.07-12.49-6.51-20.32,2.43-30,11.86-12.84-2.16-18-20.12-22.9,19.42-5.2,35.38-10.49,34.31-15-2.13-8.85-12.91-12.18-3.05-16.34,10.41-4.39,14.69-9.79,11.62-18.11C400.19,182.94,376.9,170.54,370,149c5.72-1.47,5,1.36,8.24-3.12-4.75,3.51-3.82-1.36-9.35-1.55h0a110.83,110.83,0,0,1,.46-16.19,32.73,32.73,0,0,0,6.9-18.11,49.92,49.92,0,0,0-1.69-15.85,86.94,86.94,0,0,1,5,12.68c1.7,5.91,2.78,12.12,1.74,18.4,1.91-6.13,1.72-12.69.82-19a96.48,96.48,0,0,0-4.86-18.49c-.09-.24-.2-.47-.29-.72C352.86,2.83,288.34,3.79,247.13,20.36c-15.58-12.28-30.4-9.27-48.32-4.46,2-1.86,3.92-3.71,5.9-5.46,4.34-3.8,9.25-7,14.82-6.73,5.56.62,10.45,4.42,14.63,8.3-3.58-4.37-7.64-9-14.11-10.7-6.74-1.35-13.45,2-18.49,5.33-6.76,4.56-13,9.31-19.38,13.6-1.21.28-2.43.58-3.68.84-27.88,6-93.4,36.29-82.42,72.34,5.75,18.91-13,23.32-14.51,52.7-4.53,12.62-9,25.36-11.62,38.62-1.23,6.74-2.07,13.81-.33,20.63A16.46,16.46,0,0,0,75,214.29c2.62,2.49,6.29,3.36,9.67,4.14-6.94-1.77-12.08-7.12-12.44-13.59C71.43,198.53,73,192,75,185.71c1.45-4.36,3.18-8.65,5-12.92-2.3,53.39,15.47,31.58,12.38,49.5-3.23,18.68,17,20.48,23.31,46.9,0,0,.15,163.46-44.9,187.55S1,504.93,1,504.93L142.21,521,394.1,460.49c-3.3-17.31-76.8-55.32-85.9-59.72m-1,0C303.5,399,300,383,298.55,364.58"/></g></g></svg>