<?xml version="1.0" encoding="utf-8"?>
<!-- Generator: Adobe Illustrator 22.1.0, SVG Export Plug-In . SVG Version: 6.00 Build 0)  -->
<svg version="1.1" id="_x32_" xmlns="http://www.w3.org/2000/svg" xmlns:xlink="http://www.w3.org/1999/xlink" x="0px" y="0px"
	 viewBox="0 0 167.5 100" style="enable-background:new 0 0 167.5 100;" xml:space="preserve">
<style type="text/css">
	.st0{fill:#707070;}
	.st1{fill:#FFFFFF;}
	.st2{fill:#707070;stroke:#FFFFFF;stroke-width:2.6352;stroke-miterlimit:10;}
	.st3{fill:none;stroke:#707070;stroke-width:1.9325;stroke-linecap:round;stroke-linejoin:round;stroke-miterlimit:10;}
</style>
<g>
	<path class="st0" d="M42.4,52.1c-0.2-0.8-0.5-1.5-1-2.1c-0.1-0.1-0.2-0.3-0.3-0.4c-0.9-0.9-2.1-1.4-3.5-1.4H12
		c-1.4,0-2.6,0.6-3.5,1.4c-0.1,0.1-0.2,0.2-0.3,0.4c-0.5,0.6-0.9,1.3-1,2.1c-0.1,0.3-0.1,0.6-0.1,1v18c0,0.7,0.1,1.4,0.4,2
		c0.2,0.6,0.6,1.1,1,1.5c0.1,0.1,0.2,0.2,0.3,0.3c0.9,0.6,2,1.1,3.2,1.1h25.6c1.2,0,2.3-0.4,3.1-1.1c0.1-0.1,0.2-0.2,0.3-0.3
		c0.4-0.4,0.8-1,1-1.5l0,0c0.3-0.6,0.4-1.3,0.4-1.9v-18C42.4,52.7,42.4,52.4,42.4,52.1z M10.3,51.4c0.4-0.4,1-0.7,1.7-0.7h25.6
		c0.7,0,1.3,0.3,1.7,0.7c0.1,0.1,0.2,0.2,0.2,0.3L26.1,63.3c-0.4,0.3-0.8,0.5-1.3,0.5s-0.9-0.2-1.3-0.5L10.1,51.6
		C10.1,51.5,10.2,51.4,10.3,51.4z M9.6,71.1V54.2l9.7,8.5L9.6,71.1C9.6,71.1,9.6,71.1,9.6,71.1z M37.5,73.5H12
		c-0.4,0-0.8-0.1-1.2-0.3l10.2-9l1,0.8c0.8,0.7,1.8,1,2.8,1s2-0.4,2.8-1l1-0.8l10.2,8.9C38.4,73.3,38,73.5,37.5,73.5z M39.9,71.1
		L39.9,71.1l-9.7-8.4l9.7-8.5V71.1z"/>
</g>
<g>
	<rect x="116.3" y="31.4" class="st1" width="31.2" height="37.6"/>
	<path class="st0" d="M149,41.7c-0.8,1-2.3,2.3-3.5,2.9v21.8c0,0.5-0.1,0.9-0.4,1.2c-0.3,0.3-0.6,0.5-1,0.5h-24
		c-0.4,0-0.7-0.2-1-0.5s-0.4-0.7-0.4-1.2V36.3c0-0.5,0.1-0.9,0.4-1.2s0.6-0.5,1-0.5h13.4c0.9-1.8,1.9-3.5,2.9-5.2h-16.3
		c-1.5,0-2.9,0.8-3.9,2s-1.6,3-1.6,4.9v30.1c0,1.9,0.6,3.6,1.6,4.9c1,1.2,2.4,2,3.9,2h24c1.5,0,2.9-0.8,3.9-2s1.6-3,1.6-4.9V41.6
		C149.6,41.6,149.4,41.2,149,41.7z"/>
	<path class="st0" d="M150.1,20.5c-8.9,1.6-17.5,22.6-21.7,32.4c-1.1,2.5,0.8,3.7,1.9,1.4c0.8-1.7,2.7-6.6,3.7-6.3
		c4.9,1,7.6-3,5.7-5.6c6.3,0.2,9.4-4.2,7.6-6.8c1.9,0.7,4.6,0.6,7-1C159.4,31.1,159.1,18.9,150.1,20.5z"/>
</g>
<g>
	<path class="st0" d="M101.3,65.1L76.8,88.6L52.3,65.1C40.8,72.4,34.8,85.3,34.8,100h41.9h41.9C118.7,85.3,112.7,72.4,101.3,65.1z"
		/>
	<path class="st0" d="M100.3,44.4v-6.7c0-13.1-10.6-23.7-23.7-23.7S52.9,24.6,52.9,37.7v6.7c0,13.1,10.6,23.7,23.7,23.7
		C89.7,68.1,100.3,57.5,100.3,44.4z M76.6,63.8c-10.7,0-19.4-8.7-19.4-19.4v-6.7c0-0.7,0-1.5,0.1-2.2c11.3-0.9,19.2-3.1,24.4-5.5
		c3.3,2.1,7.8,4.3,14.2,6.2c0,0.5,0.1,1,0.1,1.5v6.7C96,55.1,87.3,63.8,76.6,63.8z"/>
	<path class="st2" d="M45.7,52.6c2.9,0,5.2-2.3,5.2-5.2v-13c0-2-1.2-3.8-2.9-4.6c1.4-4.9,4-9.3,7.5-12.8c5.4-5.4,12.8-8.7,21-8.7
		s15.6,3.3,21,8.7c3.6,3.6,6.2,8,7.6,13c-1.5,0.9-2.5,2.5-2.5,4.4v13c0,2.1,1.2,3.8,3,4.7c-0.7,2.6-1.7,5.1-2.9,7.3
		c-1.2,2.1-2.5,4-3.9,5.4c-1-0.8-2.3-1.3-3.7-1.3c-3.4,0-6.2,2.8-6.2,6.2s2.8,6.2,6.2,6.2c3.4,0,6.2-2.8,6.2-6.2
		c0-0.8-0.2-1.5-0.4-2.2l0.3-0.3c3.4-3.5,6.3-8.8,7.8-14.8c2.3-0.5,4-2.6,4-5.1v-13c0-2.3-1.5-4.3-3.6-4.9
		c-3.7-14.6-17-25.5-32.8-25.5c-15.9,0-29.2,10.9-32.9,25.7c-1.9,0.8-3.2,2.6-3.2,4.8v13C40.4,50.3,42.8,52.6,45.7,52.6z"/>
	<path class="st0" d="M45.7,52.6c2.9,0,5.2-2.3,5.2-5.2v-13c0-2-1.2-3.8-2.9-4.6c1.4-4.9,4-9.3,7.5-12.8c5.4-5.4,12.8-8.7,21-8.7
		s15.6,3.3,21,8.7c3.6,3.6,6.2,8,7.6,13c-1.5,0.9-2.5,2.5-2.5,4.4v13c0,2.1,1.2,3.8,3,4.7c-0.7,2.6-1.7,5.1-2.9,7.3
		c-1.2,2.1-2.5,4-3.9,5.4c-1-0.8-2.3-1.3-3.7-1.3c-3.4,0-6.2,2.8-6.2,6.2s2.8,6.2,6.2,6.2c3.4,0,6.2-2.8,6.2-6.2
		c0-0.8-0.2-1.5-0.4-2.2l0.3-0.3c3.4-3.5,6.3-8.8,7.8-14.8c2.3-0.5,4-2.6,4-5.1v-13c0-2.3-1.5-4.3-3.6-4.9
		c-3.7-14.6-17-25.5-32.8-25.5c-15.9,0-29.2,10.9-32.9,25.7c-1.9,0.8-3.2,2.6-3.2,4.8v13C40.4,50.3,42.8,52.6,45.7,52.6z"/>
	<polygon class="st0" points="71.4,78.6 76.8,83.1 82.1,78.6 82.1,66 71.4,66 	"/>
	<path class="st0" d="M67.4,39.1c-1.6,0-3,1.3-3,3c0,1.6,1.3,3,3,3s3-1.3,3-3C70.3,40.4,69,39.1,67.4,39.1z"/>
	<path class="st0" d="M85.7,39.1c-1.6,0-3,1.3-3,3c0,1.6,1.3,3,3,3c1.6,0,3-1.3,3-3C88.7,40.4,87.4,39.1,85.7,39.1z"/>
</g>
<path class="st3" d="M83.7,54.2c0,0-2.8,3.9-7.2,3.9c-4.4,0-7.2-3.9-7.2-3.9H83.7z"/>
</svg>
