<?xml version="1.0" encoding="utf-8"?>
<!-- Generator: Adobe Illustrator 15.0.2, SVG Export Plug-In  -->
<!DOCTYPE svg PUBLIC "-//W3C//DTD SVG 1.1//EN" "http://www.w3.org/Graphics/SVG/1.1/DTD/svg11.dtd" [
	<!ENTITY ns_flows "http://ns.adobe.com/Flows/1.0/">
]>
<svg version="1.1"
	 xmlns="http://www.w3.org/2000/svg" xmlns:xlink="http://www.w3.org/1999/xlink" xmlns:a="http://ns.adobe.com/AdobeSVGViewerExtensions/3.0/"
	 x="0px" y="0px" width="325px" height="90px" viewBox="-17.136 -22.634 325 90" enable-background="new -17.136 -22.634 325 90"
	 xml:space="preserve">
<defs>
</defs>
<g>
	<g>
		<path fill="#231815" d="M31.267,39.285c0,5.362,6.295,7.344,9.678,3.613c2.564-2.798,3.381-7.811,3.963-13.174
			c0.291-2.74,4.488-2.099,4.139,0.641c-0.699,6.005-1.516,11.658-5.014,15.273c-5.945,6.471-16.904,2.973-16.904-6.354V25.002
			h-9.91c-2.797,0-2.797-4.08,0-4.08H27.36c0.059-1.457,0-3.613,0-6.063c0,0-2.738,0.059-4.43,0c-5.828,0-8.395-2.973-7.52-7.111
			c0.758-3.848,4.08-6.645,7.402-7.461c4.373-1.225,8.57,1.572,8.57,6.47v4.196h7.928c9.734,0,9.676,14.049-0.059,14.049h-7.986
			V39.285z M27.478,6.814c0-2.039-1.748-3.438-3.789-2.914c-1.633,0.408-3.789,2.157-4.313,4.314
			c-0.293,1.398,0.408,2.738,3.555,2.738c1.691-0.058,3.207,0,4.547,0V6.814z M31.384,14.859v6.121h7.928
			c4.254,0,4.254-6.121,0-6.121H31.384z"/>
		<path fill="#231815" d="M84.784,38.643c0.059,7.171,7.285,7.52,12.475,2.74c3.031-2.914,4.664-5.713,6.703-9.793
			c1.398-2.623,5.363-0.524,3.965,2.215c-1.924,3.557-4.023,7.112-7.695,10.551c-8.395,8.104-19.586,4.897-19.586-5.713V13.52
			h-2.564c-4.49,0.116-6.82-3.09-6.18-6.763c0.523-2.739,2.855-5.071,5.596-6.062c4.139-1.283,7.287,1.572,7.287,5.479V38.643z
			 M80.702,6.232c0-1.049-0.756-1.924-1.98-1.574c-1.283,0.408-2.566,1.808-2.799,3.031c-0.174,1.225,0.875,1.75,2.041,1.75h2.738
			V6.232z M94.577,14.51c1.281-2.273,4.371-1.982,5.654,0.117c0,0,1.283,2.098,2.799,5.13c1.166,2.04-2.041,3.73-3.148,1.69
			c-2.1-4.197-2.391-4.547-2.391-4.547c-0.232-0.35-0.816-0.117-0.932,0.116l-0.816,1.398l0.99,2.099
			c0.99,2.1-1.982,3.73-3.09,1.633l-3.264-6.412c-1.107-2.099,2.041-3.789,3.148-1.69l0.641,1.224L94.577,14.51z"/>
		<path fill="#231815" d="M156.489,41.383c0,3.323-1.867,5.888-5.072,5.888c-3.031,0-6.004-2.39-6.938-5.362
			c-0.99-3.381,0.99-6.704,5.131-6.704h2.797v-4.955c0-3.265-1.748-5.247-5.305-5.247h-2.098l-13.582,21.453
			c-1.516,2.215-5.131,0-3.615-2.332l12.359-19.004h-4.955c-4.256,0-6.879-3.147-6.879-6.236c0-2.683,4.197-2.683,4.197,0
			c0,0.99,0.873,2.156,2.682,2.156h7.693l10.086-15.914c1.516-2.215,4.779,0,3.322,2.332l-8.57,13.523
			c5.422,0.232,8.746,3.613,8.746,9.269V41.383z M152.524,39.109h-2.855c-0.875,0-1.518,0.584-1.166,1.516
			c0.35,1.166,1.457,2.273,2.506,2.507c1.107,0.233,1.516-0.583,1.516-1.69V39.109z M164.591,20.631
			c8.277,0,12.824,9.561,5.188,15.447c-2.215,1.69-4.721-1.748-2.623-3.322c4.547-3.498,1.75-8.104-2.564-8.104h-5.188
			c-2.857,0-2.799-4.021,0-4.021H164.591z"/>
		<path fill="#231815" d="M209.306,31.123c5.713,0,7.986,3.148,7.986,6.879s2.391,4.779,3.381,5.072
			c1.865,0.523,4.605-0.117,6.063-2.565c1.4-2.332,4.955-0.117,3.557,2.272c-2.217,3.615-6.588,5.422-10.727,4.314
			c-3.965-1.166-6.412-4.547-6.412-8.977c0-1.691-1.342-3.031-2.916-3.031h-4.836l-10.668,10.726
			c-2.857,2.915-7.346,0.933-7.346-2.856v-1.282c0-5.888,5.131-10.552,11.018-10.552h5.246l5.771-6.063
			c0.814-0.875,0.232-2.331-0.934-2.331h-6.004c-2.623,0-5.77-1.574-5.77-6.704V9.321c-0.059-4.255,2.855-6.528,6.236-5.888
			c2.564,0.525,5.014,2.74,5.83,5.363c1.223,3.906-1.633,6.879-5.189,6.879h-2.855v1.283c0,1.224,0.99,1.924,1.748,1.807h6.238
			c5.479,0,7.17,5.828,3.555,9.209L209.306,31.123z M199.921,34.912h-1.516c-3.381,0-6.938,2.564-6.996,7.346
			c0,0.466,0.525,0.523,0.816,0.291L199.921,34.912z M200.503,11.887h3.031c1.107,0,1.867-0.699,1.459-1.924
			c-0.352-1.225-1.633-2.448-2.74-2.623c-1.283-0.291-1.75,0.699-1.75,1.865V11.887z"/>
		<path fill="#231815" d="M269.294,22.846c6.063,0,10.318,4.197,10.318,10.144c0,3.905-2.332,7.52-6.354,9.502
			c1.398,0.757,2.447,1.282,2.855,1.456c2.506,1.399,0.525,5.189-2.039,3.789c-1.225-0.641-2.916-1.689-5.598-2.798
			c-3.264,1.517-6.412,2.856-7.928,3.44c-4.43,1.632-8.277-0.934-8.277-5.888c0-5.13,4.373-7.638,8.744-6.005
			c1.281,0.467,4.43,2.041,7.52,3.497c1.166-0.29,2.215-0.815,3.031-1.282c2.273-1.225,3.672-3.381,3.672-5.654
			c0-3.672-2.506-6.004-5.945-6.004h-10.9c-6.762,0-8.395-7.928-3.207-11.075l13.291-7.812c1.4-0.934,0.875-3.148-0.99-3.148h-8.627
			c-2.857,0-2.857-4.43,0-4.43h8.859c6.762,0,8.453,7.869,3.207,11.075l-13.291,7.812c-1.574,0.933-1.049,3.381,0.932,3.381H269.294
			z M259.151,44.414c0.932-0.291,2.855-1.049,4.838-1.982c-1.807-0.99-3.73-1.689-4.547-1.98c-1.398-0.584-2.973-0.234-2.973,2.04
			C256.47,44.355,257.228,45.056,259.151,44.414z"/>
	</g>
</g>
<path fill="none" stroke="#231815" stroke-width="4.0612" stroke-linecap="round" stroke-miterlimit="10" d="M294.44,53.922
	L17.673,54.223c-8.604,0-15.643-7.039-15.643-15.643v-0.001c0-8.604,7.039-15.644,15.643-15.644"/>
</svg>
