<?xml version="1.0" encoding="utf-8"?>
<!-- Generator: Adobe Illustrator 15.0.2, SVG Export Plug-In  -->
<!DOCTYPE svg PUBLIC "-//W3C//DTD SVG 1.1//EN" "http://www.w3.org/Graphics/SVG/1.1/DTD/svg11.dtd" [
	<!ENTITY ns_flows "http://ns.adobe.com/Flows/1.0/">
]>
<svg version="1.1"
	 xmlns="http://www.w3.org/2000/svg" xmlns:xlink="http://www.w3.org/1999/xlink" xmlns:a="http://ns.adobe.com/AdobeSVGViewerExtensions/3.0/"
	 x="0px" y="0px" width="380px" height="90px" viewBox="-8.503 -12.412 380 90" enable-background="new -8.503 -12.412 380 90"
	 xml:space="preserve">
<defs>
</defs>
<g>
	<g>
		<path fill="#231815" d="M31.267,50.324c0,5.362,6.295,7.344,9.678,3.613c2.564-2.798,3.381-7.811,3.963-13.174
			c0.291-2.74,4.488-2.099,4.139,0.641c-0.699,6.005-1.516,11.658-5.014,15.273c-5.945,6.471-16.904,2.973-16.904-6.354V36.041
			h-9.91c-2.797,0-2.797-4.08,0-4.08H27.36c0.059-1.457,0-3.613,0-6.063c0,0-2.738,0.059-4.43,0c-5.828,0-8.395-2.973-7.52-7.111
			c0.758-3.848,4.08-6.645,7.402-7.461c4.373-1.225,8.57,1.572,8.57,6.47v4.196h7.928c9.734,0,9.676,14.049-0.059,14.049h-7.986
			V50.324z M27.478,17.854c0-2.039-1.748-3.438-3.789-2.914c-1.633,0.408-3.789,2.157-4.313,4.314
			c-0.293,1.398,0.408,2.738,3.555,2.738c1.691-0.058,3.207,0,4.547,0V17.854z M31.384,25.898v6.121h7.928
			c4.254,0,4.254-6.121,0-6.121H31.384z"/>
		<path fill="#231815" d="M84.784,49.682c0.059,7.171,7.285,7.52,12.475,2.74c3.031-2.914,4.664-5.713,6.703-9.793
			c1.398-2.623,5.363-0.524,3.965,2.215c-1.924,3.557-4.023,7.112-7.695,10.551c-8.395,8.104-19.586,4.897-19.586-5.713V24.559
			h-2.564c-4.49,0.116-6.82-3.09-6.18-6.763c0.523-2.739,2.855-5.071,5.596-6.062c4.139-1.283,7.287,1.572,7.287,5.479V49.682z
			 M80.702,17.271c0-1.049-0.756-1.924-1.98-1.574c-1.283,0.408-2.566,1.808-2.799,3.031c-0.174,1.225,0.875,1.75,2.041,1.75h2.738
			V17.271z M94.577,25.549c1.281-2.273,4.371-1.982,5.654,0.117c0,0,1.283,2.098,2.799,5.13c1.166,2.04-2.041,3.73-3.148,1.69
			c-2.1-4.197-2.391-4.547-2.391-4.547c-0.232-0.35-0.816-0.117-0.932,0.116l-0.816,1.398l0.99,2.099
			c0.99,2.1-1.982,3.73-3.09,1.633l-3.264-6.412c-1.107-2.099,2.041-3.789,3.148-1.69l0.641,1.224L94.577,25.549z"/>
		<path fill="#231815" d="M156.489,52.422c0,3.323-1.867,5.888-5.072,5.888c-3.031,0-6.004-2.39-6.938-5.362
			c-0.99-3.381,0.99-6.704,5.131-6.704h2.797v-4.955c0-3.265-1.748-5.247-5.305-5.247h-2.098l-13.582,21.453
			c-1.516,2.215-5.131,0-3.615-2.332l12.359-19.004h-4.955c-4.256,0-6.879-3.147-6.879-6.236c0-2.683,4.197-2.683,4.197,0
			c0,0.99,0.873,2.156,2.682,2.156h7.693l10.086-15.914c1.516-2.215,4.779,0,3.322,2.332l-8.57,13.523
			c5.422,0.232,8.746,3.613,8.746,9.269V52.422z M152.524,50.148h-2.855c-0.875,0-1.518,0.584-1.166,1.516
			c0.35,1.166,1.457,2.273,2.506,2.507c1.107,0.233,1.516-0.583,1.516-1.69V50.148z M164.591,31.67
			c8.277,0,12.824,9.561,5.188,15.447c-2.215,1.69-4.721-1.748-2.623-3.322c4.547-3.498,1.75-8.104-2.564-8.104h-5.188
			c-2.857,0-2.799-4.021,0-4.021H164.591z"/>
		<path fill="#231815" d="M209.306,42.162c5.713,0,7.986,3.148,7.986,6.879s2.391,4.779,3.381,5.072
			c1.865,0.523,4.605-0.117,6.063-2.565c1.4-2.332,4.955-0.117,3.557,2.272c-2.217,3.615-6.588,5.422-10.727,4.314
			c-3.965-1.166-6.412-4.547-6.412-8.977c0-1.691-1.342-3.031-2.916-3.031h-4.836l-10.668,10.726
			c-2.857,2.915-7.346,0.933-7.346-2.856v-1.282c0-5.888,5.131-10.552,11.018-10.552h5.246l5.771-6.063
			c0.814-0.875,0.232-2.331-0.934-2.331h-6.004c-2.623,0-5.77-1.574-5.77-6.704V20.36c-0.059-4.255,2.855-6.528,6.236-5.888
			c2.564,0.525,5.014,2.74,5.83,5.363c1.223,3.906-1.633,6.879-5.189,6.879h-2.855v1.283c0,1.224,0.99,1.924,1.748,1.807h6.238
			c5.479,0,7.17,5.828,3.555,9.209L209.306,42.162z M199.921,45.951h-1.516c-3.381,0-6.938,2.564-6.996,7.346
			c0,0.466,0.525,0.523,0.816,0.291L199.921,45.951z M200.503,22.926h3.031c1.107,0,1.867-0.699,1.459-1.924
			c-0.352-1.225-1.633-2.448-2.74-2.623c-1.283-0.291-1.75,0.699-1.75,1.865V22.926z"/>
		<path fill="#231815" d="M269.294,33.885c6.063,0,10.318,4.197,10.318,10.144c0,3.905-2.332,7.52-6.354,9.502
			c1.398,0.757,2.447,1.282,2.855,1.456c2.506,1.399,0.525,5.189-2.039,3.789c-1.225-0.641-2.916-1.689-5.598-2.798
			c-3.264,1.517-6.412,2.856-7.928,3.44c-4.43,1.632-8.277-0.934-8.277-5.888c0-5.13,4.373-7.638,8.744-6.005
			c1.281,0.467,4.43,2.041,7.52,3.497c1.166-0.29,2.215-0.815,3.031-1.282c2.273-1.225,3.672-3.381,3.672-5.654
			c0-3.672-2.506-6.004-5.945-6.004h-10.9c-6.762,0-8.395-7.928-3.207-11.075l13.291-7.812c1.4-0.934,0.875-3.148-0.99-3.148h-8.627
			c-2.857,0-2.857-4.43,0-4.43h8.859c6.762,0,8.453,7.869,3.207,11.075l-13.291,7.812c-1.574,0.933-1.049,3.381,0.932,3.381H269.294
			z M259.151,55.453c0.932-0.291,2.855-1.049,4.838-1.982c-1.807-0.99-3.73-1.689-4.547-1.98c-1.398-0.584-2.973-0.234-2.973,2.04
			C256.47,55.395,257.228,56.095,259.151,55.453z"/>
	</g>
</g>
<path fill="none" stroke="#231815" stroke-width="4.0612" stroke-linecap="round" stroke-miterlimit="10" d="M362.743,64.961
	l-345.07,0.301c-8.604,0-15.643-7.039-15.643-15.643v-0.001c0-8.604,7.039-15.644,15.643-15.644"/>
<path fill="#6FB92C" d="M343.765,14.35c1.013-1.475,1.609-3.258,1.609-5.184c0-5.062-4.105-9.166-9.168-9.166
	c-4.686,0-8.542,3.518-9.093,8.055c-0.748-0.052-1.503-0.084-2.266-0.084c-1.238,0-2.451,0.074-3.644,0.205
	C320.71,3.579,316.821,0,312.093,0c-5.063,0-9.167,4.104-9.167,9.166c0,2.251,0.813,4.31,2.159,5.905
	c-4.207,3.774-6.769,8.757-6.769,14.223c0,11.777,11.878,19.53,26.531,19.53c14.651,0,26.529-7.753,26.529-19.53
	C351.377,23.473,348.472,18.197,343.765,14.35z"/>
<path fill="#6FB92C" d="M338.17,60.848c4.736-3.897,3.948-7.325,2.686-8.416c-1.265-1.091-3.79-0.313-3.79-0.313
	s-1.105-6.701-1.421-7.323l-10.421-0.154V44.64l-0.078,0.001l-0.079-0.001v0.002l-10.42,0.154c-0.316,0.622-1.421,7.323-1.421,7.323
	s-2.526-0.778-3.789,0.313s-2.053,4.519,2.684,8.416c0,0-4.104,2.025-2.841,3.428c1.263,1.403,11.209-1.869,11.209-1.869h4.578
	h0.157h4.579c0,0,9.946,3.272,11.209,1.869C342.275,62.873,338.17,60.848,338.17,60.848z"/>
<ellipse fill="#FFFFFF" cx="325.301" cy="55.392" rx="8.728" ry="6.235"/>
<path fill="#6FB92C" d="M336.184,48.905c-0.947,10.13-4.735,15.117-4.735,15.117l-0.208,0.315l0.003,0.002l1.179,3.896
	c0.504-0.019,0.985,0.277,1.179,0.771c0.245,0.627-0.064,1.333-0.69,1.576c-0.626,0.244-1.332-0.064-1.575-0.689
	c-0.193-0.496-0.04-1.038,0.343-1.366l-1.229-2.541l-0.644,2.749c0.445,0.234,0.714,0.732,0.634,1.258
	c-0.101,0.663-0.721,1.12-1.386,1.019c-0.663-0.102-1.12-0.722-1.019-1.387c0.08-0.523,0.485-0.919,0.98-1.01l0.205-2.815
	l-1.931,2.059c0.268,0.426,0.251,0.992-0.08,1.406c-0.42,0.523-1.186,0.609-1.709,0.189c-0.525-0.42-0.609-1.185-0.189-1.71
	c0.332-0.414,0.879-0.553,1.353-0.386l1.585-2.335l-2.701,0.818c0.019,0.501-0.276,0.982-0.771,1.176
	c-0.625,0.245-1.331-0.064-1.574-0.689c-0.246-0.625,0.064-1.331,0.689-1.575c0.496-0.193,1.038-0.039,1.366,0.344l3.606-1.72
	l0.059-0.133l2.683-14.493"/>
<path fill="#6FB92C" d="M314.051,48.731c0.947,10.131,4.735,15.116,4.735,15.116l0.208,0.315l-0.004,0.003l-1.179,3.895
	c-0.503-0.019-0.984,0.277-1.177,0.772c-0.246,0.625,0.063,1.331,0.689,1.575c0.626,0.243,1.332-0.064,1.576-0.69
	c0.192-0.495,0.039-1.038-0.344-1.366l1.229-2.539l0.644,2.747c-0.445,0.235-0.714,0.732-0.634,1.258
	c0.101,0.663,0.721,1.12,1.385,1.019s1.12-0.722,1.02-1.385c-0.08-0.525-0.485-0.92-0.979-1.012l-0.205-2.814l1.93,2.058
	c-0.267,0.426-0.252,0.992,0.08,1.406c0.419,0.524,1.186,0.609,1.709,0.189c0.525-0.419,0.609-1.185,0.191-1.709
	c-0.334-0.415-0.881-0.554-1.356-0.387l-1.584-2.334l2.701,0.817c-0.019,0.502,0.277,0.984,0.772,1.178
	c0.625,0.244,1.331-0.065,1.574-0.691c0.246-0.625-0.063-1.33-0.69-1.574c-0.494-0.194-1.037-0.04-1.365,0.343l-3.606-1.72
	l-0.059-0.133l-2.684-14.493"/>
<circle fill="#FFFFFF" cx="335.975" cy="9.127" r="5.335"/>
<circle fill="#FFFFFF" cx="312.263" cy="9.127" r="5.335"/>
<circle fill="#6FB92C" cx="335.975" cy="9.127" r="3.472"/>
<circle fill="#6FB92C" cx="312.263" cy="9.127" r="3.472"/>
<path fill="#FFFFFF" d="M306.963,19.172c0,0,11.856,8.129,34.722,0C341.685,19.172,324.579,53.217,306.963,19.172z"/>
<circle fill="#231815" cx="336.992" cy="8.11" r="0.762"/>
<circle fill="#FFFFFF" cx="336.568" cy="8.11" r="1.186"/>
<circle fill="#FFFFFF" cx="313.195" cy="8.28" r="1.186"/>
<path fill="#6FB92C" d="M340.176,61.333l3.952-0.763c0.035-0.526,0.396-0.998,0.934-1.146c0.68-0.187,1.383,0.212,1.571,0.892
	c0.188,0.68-0.212,1.384-0.892,1.571c-0.538,0.148-1.089-0.072-1.39-0.507l-2.787,1.011l2.802,0.969
	c0.293-0.439,0.842-0.667,1.382-0.525c0.682,0.177,1.092,0.874,0.914,1.557c-0.177,0.683-0.875,1.092-1.557,0.915
	c-0.54-0.141-0.908-0.606-0.951-1.134l-2.918-0.518l1.941,2.238c0.474-0.232,1.063-0.156,1.459,0.236
	c0.503,0.494,0.51,1.304,0.014,1.807c-0.495,0.503-1.303,0.508-1.805,0.013c-0.398-0.392-0.484-0.979-0.258-1.456l-2.268-1.909
	l0.562,2.91c0.526,0.035,0.998,0.396,1.146,0.935c0.188,0.68-0.212,1.383-0.891,1.57c-0.682,0.188-1.385-0.212-1.571-0.892
	c-0.148-0.537,0.07-1.089,0.506-1.389l-1.01-2.787l-0.97,2.801c0.439,0.294,0.667,0.843,0.526,1.383
	c-0.179,0.682-0.874,1.092-1.558,0.913c-0.684-0.177-1.092-0.874-0.915-1.556c0.142-0.541,0.607-0.909,1.135-0.951l0.653-3.686
	C337.935,63.835,336.326,60.501,340.176,61.333z"/>
<path fill="#6FB92C" d="M310.662,61.089l-3.953-0.763c-0.035-0.527-0.395-0.997-0.934-1.146c-0.68-0.188-1.383,0.212-1.571,0.892
	c-0.187,0.68,0.214,1.385,0.892,1.571c0.539,0.148,1.091-0.072,1.391-0.507l2.787,1.011l-2.801,0.97
	c-0.295-0.44-0.844-0.668-1.383-0.528c-0.683,0.179-1.092,0.876-0.915,1.56c0.179,0.682,0.875,1.092,1.558,0.914
	c0.541-0.141,0.908-0.606,0.95-1.134l2.92-0.519l-1.942,2.241c-0.474-0.234-1.063-0.157-1.46,0.234
	c-0.503,0.494-0.509,1.304-0.014,1.807c0.495,0.502,1.304,0.508,1.807,0.013c0.397-0.392,0.482-0.979,0.256-1.456l2.269-1.909
	l-0.562,2.911c-0.527,0.035-0.999,0.396-1.146,0.933c-0.188,0.682,0.211,1.385,0.892,1.571c0.679,0.188,1.383-0.212,1.571-0.892
	c0.147-0.537-0.072-1.089-0.507-1.389l1.011-2.787l0.968,2.802c-0.439,0.294-0.666,0.842-0.525,1.382
	c0.178,0.683,0.875,1.092,1.557,0.915c0.684-0.179,1.094-0.875,0.915-1.558c-0.14-0.541-0.606-0.908-1.133-0.951l-0.655-3.687
	C312.902,63.59,314.511,60.257,310.662,61.089z"/>
<path fill="#6FB92C" d="M327.846,54.896c0,0.587,0.688,0.804,1.059,0.395c0.279-0.306,0.369-0.853,0.434-1.439
	c0.031-0.3,0.49-0.229,0.451,0.07c-0.075,0.656-0.165,1.274-0.547,1.67c-0.651,0.707-1.849,0.325-1.849-0.695v-1.562h-1.084
	c-0.306,0-0.306-0.445,0-0.445h1.109c0.006-0.159,0-0.395,0-0.663c0,0-0.3,0.007-0.484,0c-0.638,0-0.919-0.325-0.822-0.778
	c0.083-0.419,0.446-0.727,0.81-0.814c0.479-0.135,0.937,0.172,0.937,0.707V51.8h0.866c1.064,0,1.059,1.535-0.006,1.535h-0.873
	V54.896z M327.433,51.347c0-0.223-0.192-0.375-0.415-0.317c-0.178,0.044-0.415,0.234-0.472,0.47
	c-0.032,0.154,0.045,0.301,0.389,0.301c0.185-0.006,0.351,0,0.498,0V51.347z M327.858,52.227v0.669h0.866
	c0.466,0,0.466-0.669,0-0.669H327.858z"/>
</svg>
