<?xml version="1.0" encoding="utf-8"?>
<!-- Generator: Adobe Illustrator 15.0.2, SVG Export Plug-In  -->
<!DOCTYPE svg PUBLIC "-//W3C//DTD SVG 1.1//EN" "http://www.w3.org/Graphics/SVG/1.1/DTD/svg11.dtd" [
	<!ENTITY ns_flows "http://ns.adobe.com/Flows/1.0/">
]>
<svg version="1.1"
	 xmlns="http://www.w3.org/2000/svg" xmlns:xlink="http://www.w3.org/1999/xlink" xmlns:a="http://ns.adobe.com/AdobeSVGViewerExtensions/3.0/"
	 x="0px" y="0px" width="92px" height="120px" viewBox="-4.064 -4.208 92 120" enable-background="new -4.064 -4.208 92 120"
	 xml:space="preserve">
<defs>
</defs>
<linearGradient id="SVGID_1_" gradientUnits="userSpaceOnUse" x1="-1204.0415" y1="1445.5073" x2="-1127.2534" y2="1445.5073" gradientTransform="matrix(0 -1 1 0 -1403.7817 -1127.2534)">
	<stop  offset="0.8116" style="stop-color:#7FBE26"/>
	<stop  offset="1" style="stop-color:#009844"/>
</linearGradient>
<path fill="url(#SVGID_1_)" d="M71.478,22.568c1.594-2.319,2.531-5.125,2.531-8.152C74.009,6.454,67.553,0,59.591,0
	C52.222,0,46.155,5.531,45.29,12.667c-1.176-0.08-2.363-0.131-3.564-0.131c-1.945,0-3.855,0.116-5.729,0.323
	C35.22,5.63,29.103,0,21.667,0C13.704,0,7.249,6.454,7.249,14.416c0,3.54,1.28,6.778,3.396,9.287C4.028,29.639,0,37.477,0,46.073
	c0,18.521,18.681,30.715,41.726,30.715S83.45,64.595,83.45,46.073C83.45,36.916,78.88,28.62,71.478,22.568z"/>
<path fill="#7FBE26" d="M62.68,95.697c7.449-6.128,6.208-11.521,4.222-13.235c-1.986-1.716-5.959-0.49-5.959-0.49
	s-1.738-10.54-2.235-11.521L42.319,70.21v-0.004l-0.124,0.002l-0.124-0.002v0.004l-16.389,0.241
	c-0.496,0.98-2.234,11.521-2.234,11.521s-3.973-1.226-5.959,0.49c-1.986,1.715-3.229,7.107,4.221,13.235
	c0,0-6.455,3.187-4.469,5.393c1.986,2.205,17.629-2.941,17.629-2.941h7.201h0.248h7.201c0,0,15.643,5.146,17.629,2.941
	C69.136,98.884,62.68,95.697,62.68,95.697z"/>
<ellipse fill="#FFFFFF" cx="42.44" cy="87.118" rx="13.726" ry="9.805"/>
<path fill="#7FBE26" d="M59.556,76.916c-1.49,15.932-7.448,23.774-7.448,23.774l-0.327,0.496l0.006,0.004l1.854,6.126
	c0.791-0.029,1.549,0.436,1.854,1.214c0.384,0.984-0.103,2.094-1.086,2.478c-0.984,0.385-2.094-0.102-2.479-1.085
	c-0.304-0.779-0.062-1.634,0.539-2.148l-1.934-3.995l-1.011,4.322c0.699,0.37,1.123,1.151,0.997,1.978
	c-0.159,1.044-1.135,1.762-2.18,1.603c-1.043-0.159-1.762-1.135-1.602-2.18c0.125-0.825,0.763-1.445,1.54-1.59l0.323-4.427
	l-3.037,3.237c0.421,0.67,0.396,1.559-0.125,2.211c-0.66,0.825-1.863,0.958-2.688,0.299c-0.825-0.66-0.958-1.864-0.298-2.688
	c0.521-0.653,1.383-0.871,2.129-0.607l2.492-3.673l-4.248,1.286c0.029,0.79-0.436,1.548-1.213,1.852
	c-0.984,0.385-2.094-0.102-2.479-1.085c-0.384-0.984,0.102-2.094,1.086-2.478c0.779-0.305,1.634-0.063,2.148,0.539l5.672-2.704
	l0.092-0.208l4.221-22.795"/>
<path fill="#7FBE26" d="M24.746,76.642c1.489,15.933,7.448,23.774,7.448,23.774l0.327,0.496l-0.007,0.005l-1.854,6.125
	c-0.791-0.028-1.548,0.437-1.852,1.215c-0.385,0.983,0.102,2.093,1.085,2.478c0.984,0.384,2.094-0.103,2.478-1.086
	c0.305-0.778,0.063-1.634-0.539-2.148l1.935-3.994l1.011,4.321c-0.699,0.37-1.123,1.151-0.997,1.978
	c0.159,1.044,1.134,1.762,2.179,1.603s1.762-1.135,1.604-2.179c-0.127-0.826-0.764-1.446-1.541-1.591l-0.322-4.427l3.035,3.237
	c-0.42,0.67-0.396,1.559,0.125,2.211c0.66,0.825,1.864,0.959,2.689,0.299c0.824-0.66,0.958-1.864,0.299-2.688
	c-0.522-0.652-1.385-0.871-2.131-0.607l-2.492-3.672l4.248,1.285c-0.029,0.79,0.436,1.548,1.214,1.853
	c0.984,0.384,2.094-0.103,2.478-1.086c0.385-0.984-0.102-2.094-1.086-2.478c-0.777-0.305-1.633-0.063-2.147,0.539l-5.672-2.704
	l-0.092-0.208l-4.222-22.795"/>
<circle fill="#FFFFFF" cx="59.228" cy="14.354" r="8.391"/>
<circle fill="#FFFFFF" cx="21.935" cy="14.354" r="8.391"/>
<circle fill="#231815" cx="59.228" cy="14.354" r="5.461"/>
<circle fill="#231815" cx="21.935" cy="14.354" r="5.461"/>
<path fill="#E84709" d="M13.599,30.152c0,0,18.647,12.786,54.609,0C68.208,30.152,41.304,83.695,13.599,30.152z"/>
<circle fill="#231815" cx="60.826" cy="12.756" r="1.198"/>
<circle fill="#FFFFFF" cx="60.16" cy="12.756" r="1.864"/>
<circle fill="#FFFFFF" cx="23.399" cy="13.021" r="1.865"/>
<path fill="#7FBE26" d="M65.833,96.462l6.217-1.199c0.055-0.829,0.623-1.57,1.469-1.804c1.069-0.295,2.176,0.333,2.471,1.402
	s-0.333,2.176-1.402,2.471c-0.846,0.233-1.713-0.112-2.186-0.796l-4.383,1.589l4.406,1.523c0.461-0.69,1.324-1.049,2.173-0.828
	c1.073,0.279,1.718,1.376,1.438,2.45c-0.279,1.073-1.376,1.718-2.449,1.438c-0.85-0.221-1.428-0.954-1.496-1.782l-4.589-0.815
	l3.054,3.521c0.745-0.366,1.671-0.245,2.296,0.371c0.79,0.778,0.8,2.05,0.021,2.841c-0.778,0.79-2.051,0.799-2.84,0.021
	c-0.625-0.616-0.76-1.54-0.404-2.291l-3.566-3.001l0.883,4.577c0.829,0.055,1.57,0.623,1.804,1.469
	c0.295,1.069-0.333,2.176-1.402,2.471s-2.176-0.333-2.471-1.402c-0.233-0.846,0.112-1.713,0.796-2.186l-1.588-4.383l-1.524,4.405
	c0.69,0.463,1.049,1.325,0.827,2.174c-0.279,1.074-1.375,1.718-2.449,1.438s-1.718-1.376-1.438-2.449
	c0.221-0.85,0.954-1.428,1.782-1.495l1.029-5.797C62.31,100.396,59.78,95.152,65.833,96.462z"/>
<path fill="#7FBE26" d="M19.417,96.078L13.2,94.879c-0.055-0.829-0.622-1.57-1.469-1.804c-1.068-0.295-2.176,0.333-2.471,1.402
	s0.334,2.176,1.402,2.471c0.847,0.233,1.714-0.112,2.186-0.796l4.383,1.589l-4.404,1.523c-0.463-0.69-1.325-1.049-2.174-0.828
	c-1.074,0.279-1.719,1.376-1.439,2.45c0.279,1.073,1.377,1.718,2.45,1.438c0.85-0.221,1.428-0.954,1.495-1.782l4.59-0.815
	l-3.055,3.522c-0.744-0.367-1.67-0.246-2.295,0.37c-0.791,0.778-0.801,2.051-0.021,2.841s2.051,0.8,2.841,0.021
	c0.625-0.616,0.76-1.54,0.403-2.29l3.567-3.002l-0.884,4.577c-0.828,0.056-1.57,0.623-1.803,1.469
	c-0.295,1.069,0.332,2.176,1.402,2.471c1.068,0.295,2.176-0.333,2.471-1.402c0.232-0.846-0.112-1.713-0.796-2.186l1.588-4.382
	l1.524,4.405c-0.691,0.462-1.049,1.324-0.828,2.173c0.279,1.074,1.376,1.719,2.449,1.439c1.074-0.279,1.719-1.377,1.439-2.45
	c-0.221-0.85-0.954-1.428-1.782-1.495l-1.03-5.797C22.94,100.012,25.47,94.769,19.417,96.078z"/>
<path fill="#00B9EE" d="M46.442,86.339c0,0.922,1.082,1.263,1.664,0.621c0.441-0.48,0.581-1.343,0.682-2.265
	c0.05-0.472,0.771-0.361,0.711,0.11c-0.119,1.032-0.26,2.004-0.861,2.626c-1.022,1.112-2.906,0.511-2.906-1.093v-2.456h-1.705
	c-0.48,0-0.48-0.701,0-0.701h1.744c0.01-0.251,0-0.621,0-1.043c0,0-0.471,0.011-0.762,0c-1.002,0-1.443-0.511-1.293-1.223
	c0.131-0.661,0.702-1.143,1.273-1.282c0.752-0.211,1.473,0.271,1.473,1.112v0.722h1.363c1.674,0,1.664,2.415-0.01,2.415h-1.373
	V86.339z M45.791,80.756c0-0.351-0.301-0.591-0.651-0.501c-0.281,0.07-0.651,0.371-0.742,0.741c-0.05,0.241,0.07,0.472,0.611,0.472
	c0.291-0.01,0.552,0,0.782,0V80.756z M46.462,82.139v1.053h1.363c0.732,0,0.732-1.053,0-1.053H46.462z"/>
</svg>
